<svg width="17" height="19" viewBox="0 0 17 19" fill="none" xmlns="http://www.w3.org/2000/svg">
<path d="M0.206678 17.7701C4.34108 12.6565 8.69308 7.76054 13.0451 2.86454C10.9779 3.84374 8.91068 4.93175 6.73468 5.91095C5.75548 6.34615 4.88508 4.93174 5.86428 4.38774C8.69308 2.97334 11.4131 1.66774 14.2419 0.253345C14.6771 0.0357449 15.1123 0.144546 15.3299 0.470946C15.7651 0.470946 16.3091 0.797345 16.2003 1.34134C15.9827 3.51734 15.7651 5.58454 15.6563 7.76054C15.5475 8.84854 14.0243 8.84854 13.9155 7.76054C13.9155 6.56374 13.9155 5.47575 13.8067 4.27895C9.56348 8.95735 5.32028 13.8533 0.859476 18.3141C0.424276 18.8581 -0.119722 18.2053 0.206678 17.7701Z" fill="#FFAD0E"/>
</svg>
