<svg width="11" height="27" viewBox="0 0 11 27" fill="none" xmlns="http://www.w3.org/2000/svg">
<path d="M4.71421 25.7012C5.42195 18.5401 5.79244 11.3766 6.16293 4.21315C7.02287 6.57988 7.79909 9.03032 8.74394 11.482C9.17331 12.581 10.9408 12.1721 10.5952 10.9893C9.47571 7.69335 8.35743 4.56602 7.23795 1.27007C7.06572 0.762995 6.64236 0.507058 6.22141 0.588365C5.88176 0.248716 5.20606 0.0752837 4.87242 0.578749C3.36803 2.42279 1.94736 4.18311 0.358057 5.94224C-0.394137 6.86425 0.794636 8.05303 1.71665 7.30083C2.63747 6.38002 3.47457 5.54291 4.4803 4.70701C4.19232 11.6181 3.73692 18.6967 3.78619 25.6102C3.70728 26.3684 4.63411 26.2907 4.71421 25.7012Z" fill="#142625"/>
</svg>
