<svg width="160" height="110" viewBox="0 0 160 110" fill="none" xmlns="http://www.w3.org/2000/svg">
<path d="M158.3 0.405991C134.32 50.584 79.2925 83.1115 25.0225 93.1975C27.0419 92.4411 29.3136 91.4324 31.0806 90.4238C33.8572 88.9109 35.6241 88.6588 36.3814 85.3808C36.6338 84.1201 35.8765 83.1115 34.8668 82.6071L34.1096 82.355C31.8379 81.5985 30.3233 85.3808 32.3427 86.3894C27.2943 84.1201 9.37262 93.1975 2.80974 96.2233H2.55731C2.05247 96.2233 1.54763 96.4755 1.29522 96.9798C-0.471713 97.9884 -0.471698 100.51 1.54765 101.266C8.86779 104.04 16.1879 107.066 23.508 109.839C25.7798 110.848 27.5467 106.814 25.275 105.805C20.7314 103.788 15.9355 102.023 11.392 100.006C70.9627 92.9453 134.825 58.1485 159.814 1.91891C160.571 0.406006 158.804 -0.602612 158.3 0.405991Z" fill="#58F6F2"/>
</svg>
