<svg width="24" height="24" viewBox="0 0 24 24" fill="none" xmlns="http://www.w3.org/2000/svg">
<g clip-path="url(#clip0_382_157)">
<path d="M0.548162 11.9671C6.99312 11.3301 13.4402 10.9967 19.8874 10.6632C17.7573 9.88931 15.5519 9.19071 13.3454 8.34034C12.3563 7.95391 12.7243 6.36313 13.7888 6.67422C16.7552 7.68175 19.5698 8.6882 22.5361 9.69573C22.9925 9.85074 23.2228 10.2318 23.1497 10.6106C23.4554 10.9163 23.6114 11.5244 23.1583 11.8247C21.4987 13.1787 19.9144 14.4573 18.3312 15.8876C17.5014 16.5646 16.4315 15.4947 17.1084 14.6649C17.9372 13.8362 18.6906 13.0828 19.4429 12.1776C13.2229 12.4368 6.85217 12.8467 0.629989 12.8023C-0.0523936 12.8733 0.0175399 12.0392 0.548162 11.9671Z" fill="#FFAD0E"/>
</g>
<defs>
<clipPath id="clip0_382_157">
<rect width="24" height="24" fill="white" transform="translate(24 24) rotate(-180)"/>
</clipPath>
</defs>
</svg>
