<svg width="96" height="75" viewBox="0 0 96 75" fill="none" xmlns="http://www.w3.org/2000/svg">
<path d="M95.1642 71.6681C90.6999 73.2021 86.2356 74.2248 81.5162 74.9918C80.2407 75.1197 79.4754 73.7135 80.6234 72.9465C82.2815 71.7959 83.8121 70.9011 85.5978 70.1341C77.5621 67.3217 69.5264 64.3814 62.3835 59.9071C59.4498 58.1174 56.1335 55.9442 53.3274 53.2596C52.8172 53.5153 52.1794 53.6431 51.5417 53.771C43.5059 55.9442 35.2151 52.4926 28.8375 47.8905C13.659 37.0244 3.45487 18.7438 0.0109826 0.718796C-0.116569 -0.0482254 0.903833 -0.303894 1.15894 0.463127C4.09261 12.6076 9.06712 23.8572 16.8477 33.7006C23.9906 42.6492 34.3223 52.6205 46.5672 52.4926C48.2253 52.4926 50.0111 52.2369 51.6692 51.7256C48.9907 49.041 46.9498 45.973 46.057 42.6492C42.6131 29.8655 62.0009 28.0758 62.5111 40.8595C62.7662 45.8451 59.8325 49.9359 55.7509 52.2369C56.2611 52.7483 56.7713 53.1318 57.409 53.6431C66.5927 61.1855 78.1999 65.1484 89.2968 68.9835C90.3173 69.367 90.3172 70.6454 89.5519 71.0289C90.4448 70.7732 91.4652 70.5176 92.3581 70.2619C89.6795 68.4722 87.6387 66.1711 85.7254 63.2309C84.9601 61.9525 86.8734 60.802 87.6387 62.0804C89.6795 65.4041 92.103 67.7052 95.5468 69.6227C96.3121 70.0062 96.0571 71.4124 95.1642 71.6681ZM55.2406 34.0841C50.3937 32.9336 47.9702 35.4903 47.9702 41.8822C48.7355 44.0554 49.8835 46.1008 51.4141 47.8905C52.1794 48.9132 53.0723 49.808 53.9651 50.7029C55.1131 50.1915 56.1335 49.4245 57.0264 48.5297C61.108 44.6946 62.0009 36.1295 55.2406 34.0841Z" fill="#58F6F2"/>
</svg>
