<svg width="160" height="68" viewBox="0 0 160 68" fill="none" xmlns="http://www.w3.org/2000/svg">
<path d="M159.515 55.6279C155.103 52.1126 150.691 48.7731 146.279 45.2578C144.691 44.0274 142.573 46.1366 144.161 47.3669C146.456 49.1246 148.397 51.058 150.338 53.1672C118.749 55.4521 87.1601 57.5613 55.5712 59.8462C60.8654 54.2218 67.5714 47.8942 70.5715 41.3909C72.1598 37.6999 71.8068 34.7119 68.8068 32.2512C64.2184 28.3844 56.63 29.2632 51.1593 29.2632C40.2179 29.2632 29.4529 29.2632 18.5115 29.6147C22.9234 22.7599 32.6295 17.6627 28.0411 8.3472C22.9234 -2.02292 9.86426 -0.616795 0.511111 1.49238C-0.371261 1.66815 -0.0183176 2.89847 0.864055 2.7227C11.629 0.965055 36.5119 1.8439 23.0998 20.6507C20.4527 24.3418 17.0997 26.2752 14.982 30.4936C14.6291 31.3724 14.982 32.6027 16.2174 32.4269C28.3941 32.2512 40.7473 32.0754 52.9241 32.2512C61.5713 32.427 71.9833 32.0754 63.3361 46.3124C60.336 51.4096 55.0417 56.1552 51.3358 60.7251C50.6299 61.6039 50.9828 63.3615 52.3946 63.1858C86.2777 60.9008 119.984 58.4401 153.868 56.1552C154.397 56.1552 154.75 55.9794 154.926 55.6279C155.279 55.9794 155.809 56.331 156.162 56.6825C151.397 59.4947 146.632 62.3069 141.867 65.1192C140.102 66.1738 141.691 68.8102 143.455 67.7557C148.926 64.5919 154.22 61.4281 159.691 58.0886C160.044 57.5613 160.221 56.331 159.515 55.6279Z" fill="#58F6F2"/>
</svg>
