<svg width="24" height="24" viewBox="0 0 24 24" fill="none" xmlns="http://www.w3.org/2000/svg">
<g clip-path="url(#clip0_382_151)">
<path d="M23.4518 12.0329C17.0069 12.6699 10.5598 13.0033 4.11264 13.3367C6.24269 14.1107 8.44809 14.8093 10.6546 15.6597C11.6437 16.0461 11.2757 17.6369 10.2112 17.3258C7.24482 16.3182 4.43022 15.3118 1.46386 14.3043C1.0075 14.1493 0.777153 13.7682 0.850329 13.3894C0.544645 13.0837 0.388556 12.4756 0.841675 12.1753C2.50131 10.8213 4.0856 9.54273 5.66881 8.11236C6.49863 7.43539 7.56852 8.50529 6.89155 9.3351C6.06282 10.1638 5.30942 10.9172 4.55711 11.8224C10.7771 11.5632 17.1478 11.1533 23.37 11.1977C24.0524 11.1267 23.9825 11.9608 23.4518 12.0329Z" fill="#FFAD0E"/>
</g>
<defs>
<clipPath id="clip0_382_151">
<rect width="24" height="24" fill="white"/>
</clipPath>
</defs>
</svg>
