<svg width="31" height="12" viewBox="0 0 31 12" fill="none" xmlns="http://www.w3.org/2000/svg">
<path d="M30.1779 8.41696C28.8913 5.27598 27.1941 2.96067 24.6182 0.693832C23.9183 0.148459 22.629 1.0226 23.1663 1.86895C23.895 3.21573 24.7701 4.55442 25.4988 5.9012C18.4271 1.76548 7.1084 -2.13588 0.203165 3.93917C-0.10589 4.24822 0.301128 4.80978 0.679364 4.56991C7.99161 -0.943609 19.8556 3.65762 26.2482 8.19583C24.7756 8.42309 23.2258 8.72763 21.6518 9.4715C20.6024 9.96741 20.8837 11.4849 22.0022 11.0581C24.4549 10.2658 26.7451 9.77442 29.373 9.77539C30.028 9.81225 30.4385 8.98658 30.1779 8.41696Z" fill="#FFAD0E"/>
</svg>
