<svg width="17" height="20" viewBox="0 0 17 20" fill="none" xmlns="http://www.w3.org/2000/svg">
<path d="M0.0995007 1.56042C4.2339 6.67402 8.5859 11.57 12.9379 16.466C10.8707 15.4868 8.8035 14.3988 6.6275 13.4196C5.6483 12.9844 4.7779 14.3988 5.7571 14.9428C8.5859 16.3572 11.3059 17.6628 14.1347 19.0772C14.5699 19.2948 15.0051 19.186 15.2227 18.8596C15.6579 18.8596 16.2019 18.5332 16.0931 17.9892C15.8755 15.8132 15.6579 13.746 15.5491 11.57C15.4403 10.482 13.9171 10.482 13.8083 11.57C13.8083 12.7668 13.8083 13.8548 13.6995 15.0516C9.4563 10.3732 5.2131 5.47722 0.752298 1.01642C0.317099 0.47242 -0.2269 1.12522 0.0995007 1.56042Z" fill="#FFAD0E"/>
</svg>
