<svg width="96" height="59" viewBox="0 0 96 59" fill="none" xmlns="http://www.w3.org/2000/svg">
<path d="M19.7322 53.8395C34.7902 60.8115 61.8945 60.4446 80.5116 54.39C80.2378 54.7569 79.9641 54.9404 79.9641 55.3074C78.8689 56.9586 82.4281 58.4264 83.797 56.7751C85.4397 54.9404 87.0824 53.1056 88.7251 51.2709C88.9988 50.9039 89.5464 50.7205 89.8202 50.3535C91.7367 49.4361 93.3794 48.3353 94.7483 47.2345C95.5696 46.5006 95.5696 45.7667 94.7483 45.3997C95.0221 45.2163 95.2958 44.8493 95.5696 44.6658C96.9385 43.565 94.7483 42.2807 93.1056 42.4641C85.1659 43.7485 77.2263 45.0328 69.2866 46.3171C66.5488 46.6841 67.6439 49.6196 70.3817 49.2527C76.4049 48.3353 82.1543 47.418 88.1775 46.3171C87.3562 47.2345 86.261 48.1518 85.4397 48.8857C68.1915 57.509 34.2426 59.3438 18.9109 50.3535C-1.34893 38.6112 0.293789 15.8603 8.50722 0.815426C8.781 0.0815277 7.13831 -0.285397 6.86453 0.265026C-3.81294 15.8603 -3.81296 42.831 19.7322 53.8395Z" fill="#58F6F2"/>
</svg>
