<svg width="17" height="19" viewBox="0 0 17 19" fill="none" xmlns="http://www.w3.org/2000/svg">
<path d="M16.0077 0.890985C11.8733 6.00459 7.52128 10.9006 3.16928 15.7966C5.23648 14.8174 7.30368 13.7294 9.47968 12.7502C10.4589 12.315 11.3293 13.7294 10.3501 14.2734C7.52128 15.6878 4.80128 16.9934 1.97248 18.4078C1.53728 18.6254 1.10208 18.5166 0.88448 18.1902C0.44928 18.1902 -0.0947237 17.8638 0.0140763 17.3198C0.231676 15.1438 0.449276 13.0766 0.558076 10.9006C0.666876 9.81259 2.19008 9.81259 2.29888 10.9006C2.29888 12.0974 2.29888 13.1854 2.40768 14.3822C6.65088 9.70379 10.8941 4.80779 15.3549 0.346987C15.7901 -0.197014 16.3341 0.455786 16.0077 0.890985Z" fill="#FFAD0E"/>
</svg>
