<svg width="54" height="95" viewBox="0 0 54 95" fill="none" xmlns="http://www.w3.org/2000/svg">
<path d="M32.5356 0.403383C39.6449 0.545759 45.6374 5.43123 52.8595 4.85513C53.705 4.89358 54.0749 6.26718 53.0568 6.31134C44.9716 7.30045 37.9961 1.5562 29.8158 2.81234C16.182 4.90591 7.33577 18.8854 4.44336 32.2311C-0.432533 55.1648 22.5018 75.2023 39.9897 87.2135C37.2418 81.6615 34.6666 76.0268 32.0913 70.3922C31.2388 68.3635 34.0008 67.0419 35.0259 68.988C38.8765 76.6705 42.3818 84.5182 46.0597 92.2833C46.6022 93.5743 45.4538 94.7884 44.4356 94.8326C38.6721 94.9323 32.9261 94.5806 27.1203 93.5929C24.929 93.3124 25.3976 89.987 27.5114 90.0831C30.8159 90.0525 34.2931 89.9393 37.5976 89.9086C19.2043 77.2232 -4.11758 56.2635 1.50167 31.645C3.86563 20.9888 9.87938 10.1368 18.9087 4.48718C22.9919 1.86887 27.7902 0.458952 32.5356 0.403383Z" fill="#0ABAB5"/>
</svg>
