<svg width="64" height="103" viewBox="0 0 64 103" fill="none" xmlns="http://www.w3.org/2000/svg">
<g clip-path="url(#clip0_382_144)">
<path d="M60.3628 60.8865C51.447 82.3693 28.5425 95.2589 5.33061 96.7405C5.17689 96.8887 5.02316 97.0369 4.86944 97.185C12.8629 97.185 21.0102 97.185 29.0037 97.3332C30.6946 97.3332 30.6946 100 29.0037 100C19.7804 100 10.5571 99.8518 1.33385 99.8518C0.257798 99.8518 -0.510817 98.3703 0.41151 97.6295C0.872673 97.185 1.33385 96.8887 1.79501 96.4442C1.33385 95.8516 1.33385 94.8145 2.10245 94.5182C4.10083 93.4811 5.94549 92.444 7.63642 91.2587C10.7108 88.5919 13.7853 85.9251 16.8597 83.2582C18.2432 82.073 19.9341 83.8509 18.8581 85.1843C16.0911 88.4437 12.8629 91.1106 9.48107 93.3329C9.32735 93.4811 9.17363 93.6292 9.01991 93.7774C30.0797 91.4069 50.0635 79.4061 58.3644 59.9975C66.8191 40.1445 60.824 16.2912 43.2997 2.957C42.8386 2.51253 43.4534 1.77174 43.9146 2.06805C62.2074 15.254 68.8174 40.4408 60.3628 60.8865Z" fill="#FF790E"/>
</g>
<defs>
<clipPath id="clip0_382_144">
<rect width="64" height="103" fill="white" transform="matrix(-1 0 0 1 64 0)"/>
</clipPath>
</defs>
</svg>
