<svg width="160" height="91" viewBox="0 0 160 91" fill="none" xmlns="http://www.w3.org/2000/svg">
<path d="M159.758 72.6313C156.099 77.9034 153.485 83.5269 151.742 89.8534C151.394 90.9078 149.999 91.4351 149.128 90.5564C143.029 84.4056 137.103 78.2549 131.004 72.1041C129.784 70.8739 131.353 68.5894 132.921 69.6438C136.929 72.4556 140.589 75.4431 143.726 79.1335C141.634 61.2085 135.012 42.229 122.465 29.2245C104.689 10.5965 86.0424 26.0612 66.0014 30.1032C40.7323 35.1995 13.7206 23.0737 0.127528 1.10674C-0.395281 0.228058 0.824601 -0.474876 1.34741 0.403801C11.2808 15.1656 26.7908 25.3583 44.2177 27.9944C53.2798 29.4002 62.516 28.6973 71.2295 25.8855C80.2915 23.0737 88.8308 18.3289 98.2413 17.0987C130.655 12.7053 145.468 58.9239 147.211 84.0541V84.2299C147.908 84.9328 148.779 85.8115 149.477 86.5144C151.394 81.0666 153.833 75.9703 156.97 71.0497C158.19 69.468 160.804 71.0497 159.758 72.6313Z" fill="#0ABAB5"/>
</svg>
