<svg width="58" height="65" viewBox="0 0 58 65" fill="none" xmlns="http://www.w3.org/2000/svg">
<path d="M29.0009 64.5C21.3959 64.5 15.4369 50.443 15.4369 32.5C15.4369 14.556 21.3959 0.5 29.0009 0.5C36.6059 0.5 42.5639 14.556 42.5639 32.5C42.5629 50.443 36.6059 64.5 29.0009 64.5ZM29.0009 2.5C22.7329 2.5 17.4369 16.238 17.4369 32.5C17.4369 48.762 22.7339 62.5 29.0009 62.5C35.2679 62.5 40.5639 48.762 40.5639 32.5C40.5639 16.238 35.2689 2.5 29.0009 2.5Z" fill="#58F6F2"/>
<path d="M10.5969 52.851C6.24688 52.851 3.16088 51.556 1.67488 49.105C-2.27012 42.597 6.63988 30.205 21.9619 20.894C30.9719 15.418 40.4829 12.15 47.4049 12.15C51.7549 12.15 54.8389 13.445 56.3249 15.895C60.2719 22.404 51.3599 34.795 36.0399 44.107C27.0299 49.582 17.5189 52.851 10.5969 52.851ZM47.4049 14.149C40.8329 14.149 31.7099 17.309 23.0009 22.602C9.11388 31.04 0.131881 42.702 3.38588 48.067C4.78088 50.368 8.07688 50.85 10.5969 50.85C17.1669 50.85 26.2899 47.69 35.0009 42.397C48.8859 33.959 57.8679 22.296 54.6139 16.931C53.2199 14.632 49.9249 14.149 47.4049 14.149Z" fill="#58F6F2"/>
<path d="M47.3489 52.446C40.4839 52.446 31.0889 49.384 22.2179 44.258C6.69588 35.286 -2.48512 23.094 1.31688 16.5C2.80688 13.918 6.03388 12.554 10.6529 12.554C17.5179 12.554 26.9129 15.615 35.7819 20.742C51.3049 29.714 60.4849 41.907 56.6819 48.5C55.1939 51.081 51.9659 52.446 47.3489 52.446ZM10.6529 14.554C7.95988 14.554 4.45388 15.065 3.04888 17.499C-0.0861189 22.935 9.15088 34.395 23.2169 42.526C31.7969 47.485 40.8189 50.446 47.3479 50.446C50.0409 50.446 53.5449 49.934 54.9499 47.5C58.0849 42.064 48.8479 30.604 34.7819 22.473C26.2019 17.514 17.1829 14.554 10.6529 14.554Z" fill="#58F6F2"/>
<path d="M29.0009 37.769C26.0989 37.769 23.7369 35.406 23.7369 32.5C23.7369 29.594 26.0979 27.231 29.0009 27.231C31.9039 27.231 34.2649 29.594 34.2649 32.5C34.2649 35.406 31.9029 37.769 29.0009 37.769ZM29.0009 29.231C27.1999 29.231 25.7369 30.697 25.7369 32.5C25.7369 34.302 27.1999 35.769 29.0009 35.769C30.7999 35.769 32.2649 34.302 32.2649 32.5C32.2649 30.697 30.7999 29.231 29.0009 29.231Z" fill="#58F6F2"/>
</svg>
