<svg width="64" height="59" viewBox="0 0 64 59" fill="none" xmlns="http://www.w3.org/2000/svg">
<path d="M59.3491 41.4813C63.6029 28.2785 56.0255 11.2192 41.1047 0.636011C40.6721 0.330356 40.0818 0.372286 39.7011 0.743045C39.3182 1.1116 39.2542 1.69974 39.5444 2.14332C45.994 11.9508 47.6514 21.8862 44.1844 29.6302C33.8506 22.6509 15.1626 6.3596 14.9673 6.18967C14.5535 5.82663 13.9323 5.82663 13.5174 6.18967C13.1014 6.5527 13.0175 7.16622 13.3198 7.62746C13.6112 8.06884 18.8327 15.9916 24.4558 22.8793C20.4018 19.9839 15.9284 16.3182 7.97033 9.66442C7.55653 9.31794 6.95184 9.32236 6.54246 9.67436C6.13308 10.0264 6.03929 10.6233 6.32067 11.0846C14.2037 24.0247 27.3259 36.0236 33.7932 41.5243C18.8856 48.2035 1.88591 37.2131 1.71046 37.0984C1.27129 36.8104 0.693085 36.8699 0.323429 37.2396C-0.0462257 37.6093 -0.105812 38.1886 0.181085 38.6266C3.43184 43.5701 7.90081 47.2457 13.61 51.2424C21.2095 56.5632 28.7714 58.5681 35.2112 58.5681C41.8672 58.5681 47.3237 56.4264 50.3758 53.5883C50.3891 53.5717 51.7563 52.1604 54.7852 53.0476C57.1996 53.7538 60.5265 56.412 61.6906 57.6126C61.9709 57.9017 62.3902 58.0153 62.7775 57.9083C63.167 57.799 63.466 57.4868 63.5576 57.0939C63.8512 55.8283 63.999 54.5218 63.999 53.2131C64.0001 48.8048 62.3538 44.6658 59.3491 41.4813ZM61.7215 54.6719C60.0409 53.2837 57.556 51.5579 55.4032 50.9279C51.0015 49.6446 48.82 52.0148 48.8012 52.0446C43.4109 57.0476 29.3209 59.5491 14.8746 49.4338C11.1218 46.8065 7.93171 44.3337 5.31212 41.5497C7.17364 42.4214 9.49308 43.3704 12.127 44.1637C21.1444 46.8771 29.5074 46.3872 36.3179 42.7425C36.6412 42.5693 36.8575 42.247 36.895 41.8818C36.9314 41.5166 36.7847 41.1568 36.5033 40.9218C31.679 36.9042 20.8542 27.3814 12.6026 16.3877C20.6379 23.015 24.3753 25.7604 30.303 29.3168C30.783 29.6048 31.4032 29.4879 31.7463 29.0432C32.0884 28.5985 32.042 27.9695 31.6404 27.5789C27.8445 23.8923 23.3612 18.0407 20.031 13.4239C26.8592 19.1894 37.4854 27.9298 44.0255 32.1693C44.2848 32.3381 44.607 32.3877 44.9049 32.3116C45.204 32.2333 45.4578 32.0313 45.6023 31.7577C49.4379 24.4694 48.9336 15.313 44.3289 6.02856C55.668 16.2068 60.9656 30.3883 57.0473 41.3985C56.9027 41.8035 57.0076 42.2548 57.3154 42.5571C60.202 45.3864 61.7932 49.169 61.7932 53.2109C61.7932 53.6997 61.7689 54.1864 61.7215 54.6719Z" fill="#58F6F2"/>
</svg>
