<svg width="62" height="59" viewBox="0 0 62 59" fill="none" xmlns="http://www.w3.org/2000/svg">
<path d="M29.7199 0.0599976C20.5449 0.0599976 13.0799 10.6742 13.0799 23.7225C13.0799 30.2437 14.9807 36.0978 17.9974 40.37C17.2766 41.309 16.9199 42.4468 16.9199 43.58C16.9199 44.8244 17.3278 46.0861 18.2024 47.07C19.077 48.0539 20.4399 48.7 22.0399 48.7C23.6399 48.7 25.0028 48.0539 25.8774 47.07C26.752 46.0861 27.1599 44.8244 27.1599 43.58C27.1599 42.3356 26.752 41.0739 25.8774 40.09C25.0028 39.1061 23.6399 38.46 22.0399 38.46C21.2948 38.46 20.6093 38.6109 19.9924 38.86C17.3266 35.0268 15.6399 29.6844 15.6399 23.7225C15.6399 12.086 21.9567 2.62 29.7199 2.62C36.6562 2.62 42.4216 10.184 43.5749 20.0925C44.4799 20.4368 45.3778 20.825 46.2674 21.2525C45.3957 9.3613 38.3087 0.0599976 29.7199 0.0599976ZM27.1599 16.7C25.5599 16.7 24.197 17.3461 23.3224 18.33C22.4478 19.3139 22.0399 20.5756 22.0399 21.82C22.0399 23.0644 22.4478 24.3261 23.3224 25.31C24.197 26.2939 25.5599 26.94 27.1599 26.94C28.7599 26.94 30.1228 26.2939 30.9974 25.31C31.544 24.6951 31.8885 23.9674 32.0849 23.2075C36.6642 23.0106 41.8106 24.3635 46.5424 27.2C56.6467 33.257 61.7364 43.819 57.8874 50.7425C56.5127 53.2142 54.1128 54.9689 50.9499 55.815C46.5185 57.0028 41.0754 56.2726 35.8799 53.9225C35.1298 54.5254 34.3365 55.0958 33.5199 55.6475C37.7759 57.7966 42.2799 58.935 46.4399 58.935C48.246 58.935 49.9868 58.7227 51.6124 58.2875C55.4614 57.2571 58.4059 55.0775 60.1249 51.985C64.6356 43.8672 59.1329 31.7647 47.8574 25.005C42.7681 21.9521 37.1766 20.4587 32.1349 20.6225C31.9524 19.793 31.5897 18.9964 30.9974 18.33C30.1228 17.3461 28.7599 16.7 27.1599 16.7ZM27.1599 19.26C28.1199 19.26 28.677 19.5739 29.0824 20.03C29.4878 20.4861 29.7199 21.1444 29.7199 21.82C29.7199 22.4956 29.4878 23.1539 29.0824 23.61C28.677 24.0661 28.1199 24.38 27.1599 24.38C26.1999 24.38 25.6428 24.0661 25.2374 23.61C24.832 23.1539 24.5999 22.4956 24.5999 21.82C24.5999 21.1444 24.832 20.4861 25.2374 20.03C25.6428 19.5739 26.1999 19.26 27.1599 19.26ZM10.7274 27.365C1.81348 34.3282 -2.14948 44.7402 1.8774 51.985C3.59644 55.0775 6.54094 57.2546 10.3899 58.285C12.0168 58.7202 13.7563 58.935 15.5624 58.935C20.4264 58.935 25.766 57.3883 30.6249 54.475C36.4562 50.979 40.6558 46.0544 42.7924 40.9925C44.2706 40.9216 45.5345 40.3158 46.3574 39.39C47.232 38.4061 47.6399 37.1444 47.6399 35.9C47.6399 34.6556 47.232 33.3939 46.3574 32.41C45.4828 31.4261 44.1199 30.78 42.5199 30.78C40.9199 30.78 39.557 31.4261 38.6824 32.41C37.8078 33.3939 37.3999 34.6556 37.3999 35.9C37.3999 37.1444 37.8078 38.4061 38.6824 39.39C39.1075 39.8682 39.653 40.2618 40.2799 40.545C38.2723 44.9082 34.4754 49.182 29.3074 52.28C23.2274 55.9267 16.4029 57.2486 11.0499 55.815C7.88574 54.9676 5.48834 53.2142 4.1149 50.7425C0.86114 44.8891 4.01104 36.4475 11.1624 30.3125C10.9768 29.3512 10.8324 28.366 10.7274 27.365ZM42.5199 33.34C43.4799 33.34 44.037 33.6539 44.4424 34.11C44.8478 34.5661 45.0799 35.2244 45.0799 35.9C45.0799 36.5756 44.8478 37.2339 44.4424 37.69C44.037 38.1461 43.4799 38.46 42.5199 38.46C41.5599 38.46 41.0028 38.1461 40.5974 37.69C40.192 37.2339 39.9599 36.5756 39.9599 35.9C39.9599 35.2244 40.192 34.5661 40.5974 34.11C41.0028 33.6539 41.5599 33.34 42.5199 33.34ZM22.0399 41.02C22.9999 41.02 23.557 41.3339 23.9624 41.79C24.3678 42.2461 24.5999 42.9044 24.5999 43.58C24.5999 44.2556 24.3678 44.9139 23.9624 45.37C23.557 45.8261 22.9999 46.14 22.0399 46.14C21.0799 46.14 20.5228 45.8261 20.1174 45.37C19.712 44.9139 19.4799 44.2556 19.4799 43.58C19.4799 42.9044 19.712 42.2461 20.1174 41.79C20.5228 41.3339 21.0799 41.02 22.0399 41.02Z" fill="#58F6F2"/>
</svg>
