<svg width="63" height="64" viewBox="0 0 63 64" fill="none" xmlns="http://www.w3.org/2000/svg">
<path fill-rule="evenodd" clip-rule="evenodd" d="M2.43939 1.93939V29.1664L29.6664 1.93939H2.43939ZM1.4697 0C0.934148 0 0.5 0.434148 0.5 0.969697V63.0303C0.5 63.5659 0.934148 64 1.4697 64H61.5909C61.9775 64 62.3272 63.7704 62.4808 63.4156C62.6344 63.0608 62.5626 62.6486 62.298 62.3667L33.3473 31.5181L62.2874 1.64441C62.5583 1.36472 62.6357 0.950083 62.4838 0.591512C62.3319 0.232942 61.9803 0 61.5909 0H1.4697ZM32.4091 1.93939L2.43939 31.9091V60.6357L31.3061 30.8378C31.309 30.8348 31.3119 30.8318 31.3148 30.8288L59.3014 1.93939H32.4091ZM31.9963 32.9126L3.75919 62.0606H59.351L31.9963 32.9126Z" fill="#58F6F2"/>
</svg>
