<svg width="62" height="65" viewBox="0 0 62 65" fill="none" xmlns="http://www.w3.org/2000/svg">
<path fill-rule="evenodd" clip-rule="evenodd" d="M30.6129 0.576823C30.8606 0.474392 31.1394 0.474392 31.3871 0.576823L61.3806 12.9773C61.8009 13.1511 62.0513 13.5833 61.9911 14.0312L56.9922 51.2328C56.9481 51.5609 56.743 51.846 56.4447 51.994L31.4501 64.3946C31.1668 64.5351 30.8332 64.5351 30.5499 64.3946L5.55534 51.994C5.25695 51.846 5.05188 51.5609 5.00779 51.2328L0.00887958 14.0312C-0.051305 13.5833 0.19908 13.1511 0.61943 12.9773L30.6129 0.576823ZM2.10623 14.5265L6.93262 50.4442L31 62.3847L55.0674 50.4442L59.8938 14.5265L31 2.58062L2.10623 14.5265ZM30.9998 17.8607C31.3653 17.8607 31.7021 18.0574 31.8796 18.3744L40.1865 33.2111C40.2049 33.2403 40.2219 33.2705 40.2372 33.3016L44.3769 40.6953C44.6469 41.1775 44.4718 41.7855 43.9859 42.0534C43.5 42.3212 42.8872 42.1475 42.6172 41.6654L38.7391 34.7387H23.2605L19.3824 41.6654C19.1124 42.1475 18.4996 42.3212 18.0137 42.0534C17.5278 41.7855 17.3527 41.1775 17.6227 40.6953L21.7676 33.2923C21.7801 33.2676 21.7936 33.2434 21.8081 33.2199L30.12 18.3744C30.2975 18.0574 30.6343 17.8607 30.9998 17.8607ZM24.3788 32.7413H37.6207L30.9998 20.9159L24.3788 32.7413Z" fill="#58F6F2"/>
</svg>
