<svg width="66" height="57" viewBox="0 0 66 57" fill="none" xmlns="http://www.w3.org/2000/svg">
<mask id="path-1-outside-1_385_342" maskUnits="userSpaceOnUse" x="-1" y="-1" width="68" height="59" fill="black">
<rect fill="white" x="-1" y="-1" width="68" height="59"/>
<path d="M0.25 32.75L15.5 -1.19209e-05H28.25L17.75 30H26.75V56.5H0.25V32.75ZM37.25 32.75L52.5 -1.19209e-05H65.25L54.75 30H63.75V56.5H37.25V32.75Z"/>
</mask>
<path d="M0.25 32.75L-0.656536 32.3279L-0.75 32.5286V32.75H0.25ZM15.5 -1.14441e-05V-1.00001H14.8626L14.5935 -0.42214L15.5 -1.14441e-05ZM28.25 -1.14441e-05L29.1939 0.330339L29.6595 -1.00001H28.25V-1.14441e-05ZM17.75 30L16.8061 29.6696L16.3405 31H17.75V30ZM26.75 30H27.75V29H26.75V30ZM26.75 56.5V57.5H27.75V56.5H26.75ZM0.25 56.5H-0.75V57.5H0.25V56.5ZM37.25 32.75L36.3435 32.3279L36.25 32.5286V32.75H37.25ZM52.5 -1.14441e-05V-1.00001H51.8625L51.5935 -0.42214L52.5 -1.14441e-05ZM65.25 -1.14441e-05L66.1939 0.330339L66.6595 -1.00001H65.25V-1.14441e-05ZM54.75 30L53.8061 29.6696L53.3405 31H54.75V30ZM63.75 30H64.75V29H63.75V30ZM63.75 56.5V57.5H64.75V56.5H63.75ZM37.25 56.5H36.25V57.5H37.25V56.5ZM1.15654 33.1721L16.4065 0.422115L14.5935 -0.42214L-0.656536 32.3279L1.15654 33.1721ZM15.5 0.999989H28.25V-1.00001H15.5V0.999989ZM27.3061 -0.330362L16.8061 29.6696L18.6939 30.3303L29.1939 0.330339L27.3061 -0.330362ZM17.75 31H26.75V29H17.75V31ZM25.75 30V56.5H27.75V30H25.75ZM26.75 55.5H0.25V57.5H26.75V55.5ZM1.25 56.5V32.75H-0.75V56.5H1.25ZM38.1565 33.1721L53.4065 0.422115L51.5935 -0.42214L36.3435 32.3279L38.1565 33.1721ZM52.5 0.999989H65.25V-1.00001H52.5V0.999989ZM64.3062 -0.330362L53.8061 29.6696L55.6939 30.3303L66.1939 0.330339L64.3062 -0.330362ZM54.75 31H63.75V29H54.75V31ZM62.75 30V56.5H64.75V30H62.75ZM63.75 55.5H37.25V57.5H63.75V55.5ZM38.25 56.5V32.75H36.25V56.5H38.25Z" fill="#0A10B8" mask="url(#path-1-outside-1_385_342)"/>
</svg>
