<svg width="96" height="96" viewBox="0 0 96 96" fill="none" xmlns="http://www.w3.org/2000/svg">
<path d="M44.25 91.6875H51.75C52.5271 91.6875 53.1562 91.0576 53.1562 90.2812C53.1562 89.5049 52.5271 88.875 51.75 88.875H44.25C43.4736 88.875 42.8437 89.5049 42.8437 90.2812C42.8437 91.0576 43.4736 91.6875 44.25 91.6875Z" fill="url(#paint0_linear_385_201)"/>
<path d="M91.7812 21.4688C89.948 21.4688 88.385 22.6443 87.8042 24.2812H76.0312V7.03125C76.0312 3.15381 72.8774 0 69 0H27C23.1226 0 19.9688 3.15381 19.9688 7.03125V11.9377C19.9688 12.7141 20.5986 13.344 21.375 13.344C22.1514 13.344 22.7812 12.7141 22.7812 11.9377V9.1875H73.2188V24.2812H63.4688C62.6917 24.2812 62.0625 24.9111 62.0625 25.6875V31.834L49.2927 22.6912C48.52 22.1411 47.4807 22.1411 46.7036 22.6934L35.1562 30.9609V26.2896C36.7932 25.7087 37.9688 24.1458 37.9688 22.3125C37.9688 19.9863 36.0762 18.0938 33.75 18.0938C31.4238 18.0938 29.5312 19.9863 29.5312 22.3125C29.5312 24.1458 30.7068 25.7087 32.3438 26.2896V32.9751L26.3386 37.2744C25.8721 37.6077 25.5938 38.1497 25.5938 38.7231V43.4473C25.5938 44.4294 26.3928 45.2285 27.375 45.2285H31.467V64.9329C31.467 65.7092 32.0969 66.3391 32.8733 66.3391H46.5938V76.4062H22.7812V17.9377C22.7812 17.1606 22.1514 16.5315 21.375 16.5315C20.5986 16.5315 19.9688 17.1606 19.9688 17.9377V76.4062H8.1958C7.61499 74.7693 6.052 73.5938 4.21875 73.5938C1.89258 73.5938 0 75.4863 0 77.8125C0 80.1387 1.89258 82.0312 4.21875 82.0312C6.052 82.0312 7.61499 80.8557 8.1958 79.2188H19.9688V88.9688C19.9688 92.8462 23.1226 96 27 96H69C72.8774 96 76.0312 92.8462 76.0312 88.9688V83.9377C76.0312 83.1606 75.4021 82.5315 74.625 82.5315C73.8479 82.5315 73.2188 83.1606 73.2188 83.9377V84.5625H22.7812V79.2188H48C48.7771 79.2188 49.4062 78.5889 49.4062 77.8125V66.3391H63.1267C63.9031 66.3391 64.533 65.71 64.533 64.9329V45.2285H68.625C69.6072 45.2285 70.4062 44.4294 70.4062 43.4473V38.7231C70.4062 38.1504 70.1279 37.6084 69.6621 37.2751L64.875 33.8474V27.0938H73.2188V78C73.2188 78.7764 73.8479 79.4062 74.625 79.4062C75.4021 79.4062 76.0312 78.7764 76.0312 78V27.0938H87.8042C88.385 28.7307 89.948 29.9062 91.7812 29.9062C94.1074 29.9062 96 28.0137 96 25.6875C96 23.3613 94.1074 21.4688 91.7812 21.4688ZM69 2.8125C69.1223 2.8125 69.2424 2.81909 69.3618 2.82935C69.3757 2.83008 69.3896 2.83081 69.4036 2.83228C69.5171 2.84326 69.6284 2.85937 69.739 2.87842C69.7573 2.88208 69.7756 2.88501 69.7939 2.88867C69.9016 2.90918 70.0085 2.93408 70.1133 2.96265C70.1316 2.96777 70.1492 2.9729 70.1675 2.97803C70.2729 3.00879 70.377 3.04248 70.4795 3.08057C70.4934 3.08569 70.5066 3.09155 70.5198 3.09668C70.626 3.1377 70.7307 3.18237 70.8325 3.23145C70.8354 3.23291 70.8384 3.23511 70.8413 3.23657C70.9431 3.28638 71.0427 3.34058 71.1394 3.39771C71.1489 3.40283 71.1584 3.40796 71.168 3.41382C71.2617 3.47021 71.3525 3.53101 71.4412 3.59399C71.4551 3.60425 71.469 3.61377 71.4829 3.62329C71.5686 3.68628 71.6521 3.7522 71.7334 3.82178C71.7473 3.8335 71.7605 3.84521 71.7744 3.85767C71.855 3.92798 71.9326 4.00122 72.0081 4.07739C72.0183 4.08838 72.0293 4.09937 72.0396 4.11035C72.1165 4.19019 72.1904 4.27222 72.2607 4.35791C72.2651 4.36304 72.2695 4.3689 72.2739 4.37402C72.3435 4.45972 72.4102 4.54907 72.4731 4.64062C72.4783 4.64795 72.4834 4.65454 72.4885 4.66187C72.5508 4.75269 72.6079 4.84644 72.6628 4.94238C72.6709 4.95703 72.6797 4.97095 72.6877 4.9856C72.7397 5.07935 72.7881 5.17456 72.8328 5.27197C72.8408 5.28955 72.8489 5.30713 72.8562 5.32471C72.9001 5.42212 72.9397 5.52246 72.9763 5.62354C72.9822 5.64038 72.9873 5.65723 72.9932 5.67407C73.0291 5.77881 73.0613 5.88574 73.0891 5.99414C73.092 6.00439 73.0942 6.01465 73.0964 6.02563C73.1235 6.13477 73.1462 6.24609 73.1646 6.35815C73.1653 6.36401 73.1667 6.36987 73.1675 6.375H22.8325C22.8333 6.37061 22.834 6.36621 22.8347 6.36255C22.853 6.24756 22.8765 6.13477 22.9036 6.02271C22.9058 6.01392 22.908 6.00439 22.9102 5.99487C22.938 5.88574 22.9709 5.77808 23.0068 5.67188C23.0127 5.65649 23.0178 5.64038 23.0229 5.625C23.0596 5.52246 23.0999 5.42139 23.1438 5.32324C23.1511 5.3064 23.1592 5.28955 23.1665 5.27271C23.2119 5.17456 23.2603 5.07861 23.3123 4.98486L23.3364 4.94312C23.3914 4.84717 23.4492 4.75269 23.5115 4.66113C23.5159 4.65454 23.521 4.64795 23.5261 4.64136C23.5891 4.54907 23.6565 4.45972 23.7268 4.37329C23.7305 4.36816 23.7349 4.36304 23.7385 4.35791C23.8088 4.27222 23.8835 4.19019 23.9604 4.11035C23.9707 4.09937 23.981 4.08838 23.9919 4.07739C24.0667 4.00122 24.145 3.92725 24.2256 3.85693C24.2388 3.84521 24.2527 3.8335 24.2666 3.82178C24.3472 3.7522 24.4314 3.68628 24.5171 3.62329C24.5303 3.61304 24.5442 3.60352 24.5581 3.59399C24.6467 3.53101 24.7383 3.47021 24.832 3.41382C24.8408 3.40796 24.8503 3.40283 24.8599 3.39771C24.9565 3.33984 25.0562 3.28638 25.158 3.23657C25.1609 3.23511 25.1638 3.23291 25.1675 3.23145C25.2693 3.18237 25.3733 3.1377 25.4795 3.09668C25.4934 3.09155 25.5066 3.08569 25.5205 3.08057C25.6223 3.04248 25.7263 3.00806 25.8318 2.97803C25.8501 2.9729 25.8684 2.96704 25.886 2.96265C25.9915 2.93408 26.0977 2.90918 26.2061 2.88794C26.2244 2.88501 26.2427 2.88135 26.261 2.87842C26.3716 2.85864 26.4829 2.84253 26.5964 2.83228C26.6096 2.83081 26.6235 2.83008 26.6375 2.82935C26.7576 2.81909 26.8777 2.8125 27 2.8125H69ZM33.75 20.9062C34.5256 20.9062 35.1562 21.5369 35.1562 22.3125C35.1562 23.0881 34.5256 23.7188 33.75 23.7188C32.9744 23.7188 32.3438 23.0881 32.3438 22.3125C32.3438 21.5369 32.9744 20.9062 33.75 20.9062ZM4.21875 79.2188C3.44312 79.2188 2.8125 78.5881 2.8125 77.8125C2.8125 77.0369 3.44312 76.4062 4.21875 76.4062C4.99438 76.4062 5.625 77.0369 5.625 77.8125C5.625 78.5881 4.99438 79.2188 4.21875 79.2188ZM73.2188 87.375V88.9688C73.2188 91.2949 71.3262 93.1875 69 93.1875H27C24.6738 93.1875 22.7812 91.2949 22.7812 88.9688V87.375H73.2188ZM67.5938 42.416H63.5017C62.5195 42.416 61.7205 43.2151 61.7205 44.1973V57.9016H60.0469C59.2698 57.9016 58.6406 58.5315 58.6406 59.3079C58.6406 60.0842 59.2698 60.7141 60.0469 60.7141H61.7205V63.5266H34.2795V60.7141H54.0623C54.8394 60.7141 55.4685 60.0842 55.4685 59.3079C55.4685 58.5315 54.8394 57.9016 54.0623 57.9016H34.2795V44.1973C34.2795 43.2151 33.4805 42.416 32.4983 42.416H28.4062V39.2534L48 25.2246L62.6646 35.7239C62.6726 35.7297 62.6799 35.7356 62.688 35.7407L67.5938 39.2534V42.416ZM91.7812 27.0938C91.0056 27.0938 90.375 26.4631 90.375 25.6875C90.375 24.9119 91.0056 24.2812 91.7812 24.2812C92.5569 24.2812 93.1875 24.9119 93.1875 25.6875C93.1875 26.4631 92.5569 27.0938 91.7812 27.0938Z" fill="url(#paint1_linear_385_201)"/>
<path d="M53.1416 47.2075C51.6511 46.0854 49.8757 45.4922 48.0059 45.4922C46.1309 45.4922 44.3496 46.0891 42.8569 47.217C42.2373 47.6851 42.1143 48.5669 42.5823 49.1865C42.8591 49.5527 43.2795 49.7454 43.7058 49.7454C44.001 49.7454 44.2983 49.6523 44.5518 49.4612C45.553 48.7046 46.7476 48.3047 48.0059 48.3047C49.2605 48.3047 50.4514 48.7024 51.4504 49.4539C52.0708 49.9211 52.9526 49.7966 53.4192 49.1763C53.8865 48.5559 53.762 47.6748 53.1416 47.2075Z" fill="url(#paint2_linear_385_201)"/>
<path d="M55.1587 43.5688C53.0815 42.0051 50.6082 41.1782 48.0059 41.1782C45.3962 41.1782 42.9185 42.0088 40.8398 43.5791C40.2202 44.0471 40.0979 44.929 40.5659 45.5486C40.842 45.9148 41.2632 46.1067 41.6887 46.1067C41.9839 46.1067 42.282 46.0144 42.5354 45.8225C44.1218 44.6243 46.0129 43.9907 48.0059 43.9907C49.9937 43.9907 51.8811 44.6213 53.4668 45.8152C54.0879 46.2825 54.969 46.1587 55.4363 45.5376C55.9028 44.918 55.7783 44.0361 55.1587 43.5688Z" fill="url(#paint3_linear_385_201)"/>
<path d="M57.0967 40.0349C54.4585 38.0464 51.3149 36.9954 48.0059 36.9954C44.6902 36.9954 41.5422 38.05 38.9026 40.0444C38.283 40.5125 38.1599 41.3943 38.6279 42.0139C38.9048 42.3801 39.3252 42.5728 39.7515 42.5728C40.0459 42.5728 40.344 42.4797 40.5974 42.2878C42.7456 40.6655 45.3069 39.8079 48.0059 39.8079C50.699 39.8079 53.2573 40.6626 55.4041 42.2805C56.0244 42.7485 56.9062 42.624 57.3728 42.0044C57.8401 41.384 57.7163 40.5022 57.0967 40.0349Z" fill="url(#paint4_linear_385_201)"/>
<path d="M49.4062 52.1829C49.4062 52.96 48.7764 53.5891 48 53.5891C47.2236 53.5891 46.5938 52.96 46.5938 52.1829C46.5938 51.4065 47.2236 50.7766 48 50.7766C48.7764 50.7766 49.4062 51.4065 49.4062 52.1829Z" fill="url(#paint5_linear_385_201)"/>
<defs>
<linearGradient id="paint0_linear_385_201" x1="0" y1="0" x2="96" y2="96" gradientUnits="userSpaceOnUse">
<stop stop-color="#FFAD0E"/>
<stop offset="1" stop-color="#58F6F2"/>
</linearGradient>
<linearGradient id="paint1_linear_385_201" x1="0" y1="0" x2="96" y2="96" gradientUnits="userSpaceOnUse">
<stop stop-color="#FFAD0E"/>
<stop offset="1" stop-color="#58F6F2"/>
</linearGradient>
<linearGradient id="paint2_linear_385_201" x1="0" y1="0" x2="96" y2="96" gradientUnits="userSpaceOnUse">
<stop stop-color="#FFAD0E"/>
<stop offset="1" stop-color="#58F6F2"/>
</linearGradient>
<linearGradient id="paint3_linear_385_201" x1="0" y1="0" x2="96" y2="96" gradientUnits="userSpaceOnUse">
<stop stop-color="#FFAD0E"/>
<stop offset="1" stop-color="#58F6F2"/>
</linearGradient>
<linearGradient id="paint4_linear_385_201" x1="0" y1="0" x2="96" y2="96" gradientUnits="userSpaceOnUse">
<stop stop-color="#FFAD0E"/>
<stop offset="1" stop-color="#58F6F2"/>
</linearGradient>
<linearGradient id="paint5_linear_385_201" x1="0" y1="0" x2="96" y2="96" gradientUnits="userSpaceOnUse">
<stop stop-color="#FFAD0E"/>
<stop offset="1" stop-color="#58F6F2"/>
</linearGradient>
</defs>
</svg>
