<svg width="64" height="65" viewBox="0 0 64 65" fill="none" xmlns="http://www.w3.org/2000/svg">
<path fill-rule="evenodd" clip-rule="evenodd" d="M0 0.5H64V64.5H0V0.5ZM2 2.5V62.5H62V2.5H2ZM12.0714 27.0714H34.2143V29.0714H24.1429V56.8571H22.1429V29.0714H12.0714V27.0714ZM35.4286 34.7143C35.4286 30.4932 38.8504 27.0714 43.0714 27.0714H48.2382C52.0513 27.0714 55.1429 30.1628 55.1429 33.9762V34.7143H53.1429V33.9762C53.1429 31.2674 50.9467 29.0714 48.2382 29.0714H43.0714C39.9549 29.0714 37.4286 31.5978 37.4286 34.7143C37.4286 37.8308 39.9549 40.3571 43.0714 40.3571H47.5C51.7209 40.3571 55.1429 43.7791 55.1429 48C55.1429 52.2209 51.7209 55.6429 47.5 55.6429H43.0714C38.8504 55.6429 35.4286 52.2209 35.4286 48H37.4286C37.4286 51.1164 39.955 53.6429 43.0714 53.6429H47.5C50.6163 53.6429 53.1429 51.1163 53.1429 48C53.1429 44.8837 50.6163 42.3571 47.5 42.3571H43.0714C38.8504 42.3571 35.4286 38.9353 35.4286 34.7143Z" fill="#58F6F2"/>
</svg>
