<svg width="64" height="41" viewBox="0 0 64 41" fill="none" xmlns="http://www.w3.org/2000/svg">
<path fill-rule="evenodd" clip-rule="evenodd" d="M15.5227 15.5101C15.5305 15.3601 15.5516 15.1938 15.5748 15.0112C15.6127 14.7134 15.656 14.3723 15.656 13.9878V13.169L13.882 12.7596H11.9715C10.9064 12.6788 9.84597 12.968 8.96934 13.5784C8.64461 13.8673 8.38986 14.2263 8.22437 14.6282C8.05887 15.0301 7.98697 15.4644 8.01411 15.8982C7.96618 16.6434 8.21099 17.3778 8.69642 17.9452C8.99399 18.2027 9.34144 18.3962 9.71708 18.5136C10.0927 18.631 10.4885 18.6698 10.8798 18.6275L12.9267 18.2181C12.9833 18.196 13.0395 18.1731 13.0952 18.1493C13.599 17.9341 14.0689 17.648 14.4908 17.3001C14.6102 17.2016 14.7258 17.0982 14.8372 16.9899C15.1455 16.5802 15.3767 16.1178 15.5195 15.6253C15.5195 15.5881 15.5207 15.5497 15.5227 15.5101ZM13.3237 15.6668C13.4087 15.5367 13.4799 15.3981 13.5361 15.2533C13.5512 15.0656 13.5737 14.8894 13.5905 14.7596H11.8958L11.8202 14.7539C11.2602 14.7114 10.7026 14.8487 10.2276 15.1438C10.163 15.2163 10.1109 15.2994 10.0737 15.3897C10.0237 15.5111 10.002 15.6423 10.0102 15.7734L10.0181 15.9L10.01 16.0266C9.99878 16.2009 10.0406 16.3732 10.1281 16.5217C10.1863 16.5564 10.2486 16.5843 10.3136 16.6047C10.4068 16.6338 10.5041 16.6469 10.6013 16.6436L12.3445 16.2949C12.7017 16.1381 13.0322 15.9261 13.3237 15.6668ZM13.3361 10.1668L15.656 10.5762V9.34806C15.6709 9.07734 15.6627 8.80745 15.6322 8.54112C15.5358 7.69954 15.2165 6.89354 14.7008 6.20943C13.748 5.53074 12.5938 5.1941 11.4257 5.25419L9.24227 5.52712L7.05887 6.20943L6.37656 6.48235H6.10364C5.83071 6.48235 5.69425 6.20943 5.69425 5.80004V4.84481C5.68843 4.81195 5.68435 4.77896 5.682 4.74596C5.67867 4.69919 5.6788 4.65241 5.68232 4.60598C5.69419 4.44936 5.7446 4.29679 5.83071 4.1625L6.37656 3.75311C7.15737 3.3773 7.98275 3.10218 8.83288 2.93434C9.85734 2.66456 10.9121 2.52698 11.9715 2.52495C13.8899 2.3682 15.7951 2.95443 17.2935 4.1625C17.8794 4.83135 18.326 5.61033 18.6072 6.45386C18.8883 7.29739 18.9985 8.18853 18.9311 9.07514V15.6253C18.9451 16.226 19.0368 16.8222 19.204 17.3993L19.7499 18.7639C19.7992 18.8193 19.8368 18.8842 19.8603 18.9546C19.8837 19.025 19.8926 19.0994 19.8863 19.1733C19.8863 19.3731 19.8132 19.4998 19.7205 19.6604C19.6865 19.7192 19.65 19.7825 19.6134 19.8556L18.2488 20.6744H17.8394C17.7122 20.6852 17.5844 20.6662 17.4659 20.6188C17.3474 20.5714 17.2417 20.497 17.1571 20.4015C17.0614 20.3194 16.9725 20.2303 16.891 20.1351C16.7159 19.9306 16.575 19.698 16.4748 19.4463C16.2891 19.1984 16.1187 18.9396 15.9646 18.6712C15.9047 18.5671 15.8473 18.4615 15.7924 18.3546C15.3565 18.8928 14.8482 19.3651 14.2837 19.7591C14.2098 19.8106 14.1351 19.8608 14.0594 19.9096C13.7766 20.0919 13.4809 20.2551 13.1741 20.3978C12.1573 20.8708 11.0459 21.1054 9.92458 21.0838C9.19823 21.1097 8.47403 20.9902 7.79446 20.7324C7.11489 20.4747 6.49365 20.0838 5.96717 19.5827C5.47007 19.0815 5.08053 18.4841 4.82242 17.8271C4.56431 17.1701 4.44305 16.4673 4.46609 15.7618C4.46476 14.981 4.63521 14.2096 4.96538 13.5021C5.29554 12.7946 5.77732 12.1684 6.37656 11.6679C7.73337 10.6039 9.43118 10.0703 11.1527 10.1668H13.3361ZM11.2053 8.16683C9.0189 8.05856 6.86599 8.74246 5.14238 10.0941L5.11815 10.1131L5.09451 10.1329C4.27009 10.8214 3.60725 11.6829 3.15301 12.6563C2.70357 13.6194 2.46923 14.6686 2.46611 15.7312C2.43923 16.6972 2.60748 17.6588 2.96092 18.5584C3.31858 19.4688 3.85836 20.2966 4.54719 20.9911L4.56747 21.0116L4.58834 21.0315C5.30772 21.7161 6.15659 22.2502 7.08515 22.6024C7.9963 22.948 8.96617 23.1117 9.93992 23.0843C11.3473 23.1033 12.741 22.805 14.0176 22.2112C14.4916 21.9908 14.9449 21.7317 15.3731 21.4374C15.4958 21.5806 15.6277 21.7161 15.7683 21.8432C16.0395 22.1168 16.3644 22.3323 16.7231 22.4758C17.0967 22.6252 17.4977 22.6928 17.8988 22.6744H18.8027L21.1418 21.271L21.4022 20.7501C21.4076 20.7394 21.4158 20.7241 21.446 20.6717C21.4479 20.6684 21.4502 20.6643 21.4529 20.6597C21.4788 20.6151 21.537 20.5147 21.5899 20.4089C21.7317 20.1252 21.8716 19.7409 21.8852 19.2516C21.9006 18.9368 21.8575 18.6216 21.7576 18.3221C21.6986 18.1451 21.6205 17.9756 21.5249 17.8165L21.1007 16.7559C20.9988 16.3787 20.9419 15.9907 20.9311 15.6V11.0844L23.6769 20.2103C23.7636 20.5969 23.9207 20.9647 24.141 21.295C24.3402 21.594 24.5877 21.857 24.8727 22.0738C25.1229 22.303 25.4131 22.4856 25.7296 22.6122C26.1033 22.7617 26.5042 22.8292 26.9054 22.8109H28.9444L30.5768 22.2668L30.9315 21.8689C31.2112 21.5552 31.4239 21.1878 31.5568 20.7891C31.6465 20.5201 31.6985 20.2406 31.712 19.9587L32.8502 15.3068L33.9777 19.9147C33.9824 20.2087 34.031 20.5012 34.1226 20.7825C34.2669 21.2252 34.5136 21.6276 34.8429 21.9568C35.1721 22.2861 35.5745 22.5329 36.0172 22.6771C36.3969 22.8008 36.797 22.846 37.1934 22.8109H39.2397L40.4121 22.3419L40.5358 22.2706C40.951 22.0312 41.2984 21.6899 41.545 21.2789C41.7304 20.9698 41.8543 20.629 41.9111 20.2753L45.0786 10.2449C45.3 10.8306 45.6013 11.3873 45.9774 11.8982L46.0375 11.98L46.1057 12.0552C47.2271 13.2934 48.6963 14.1627 50.3196 14.5501L53.1696 15.5001L53.2445 15.5188C53.6391 15.6174 54.0067 15.8012 54.3216 16.0568C54.3217 16.0573 54.3217 16.0578 54.3217 16.0583C54.3211 16.0888 54.3128 16.1187 54.2976 16.1452C54.2836 16.1698 54.264 16.1908 54.2406 16.2065C53.705 16.4926 53.1058 16.6382 52.499 16.6301L50.3205 16.3881L48.4749 15.8113L47.6509 15.3993H46.9058C46.2306 15.3993 45.5831 15.6675 45.1056 16.145C44.6282 16.6224 44.36 17.27 44.36 17.9452V19.0369C44.36 19.2108 44.3807 19.3549 44.3973 19.4472C44.4147 19.5442 44.4355 19.6272 44.4518 19.6868C44.4664 19.7403 44.4824 19.7929 44.4964 19.8372V20.2022L44.8466 20.7132C45.2391 21.286 45.793 21.7292 46.438 21.9863L46.4753 22.0012L48.8986 22.8565L48.9657 22.875C50.1163 23.1931 51.3043 23.3551 52.498 23.3567L52.553 23.3568L52.6078 23.3539C53.8022 23.2898 54.9692 22.9799 56.0363 22.4449C57.0784 22.2126 58.0426 21.7103 58.831 20.9867C59.6844 20.3463 60.3752 19.5129 60.8461 18.5539L60.8554 18.5351L60.8642 18.5161C61.3184 17.5403 61.5675 16.4816 61.5961 15.4056L61.5965 15.3911L61.5966 15.3766C61.6144 13.9149 61.1175 12.4934 60.1931 11.3611C59.1385 10.0605 57.678 9.15367 56.0476 8.78435L53.2578 7.80792L53.0728 7.77994C52.6649 7.71824 52.2869 7.52926 51.9928 7.23996L51.9672 7.21472C52.3933 7.02836 52.8589 6.94638 53.325 6.97697L53.3877 6.98109L53.4505 6.98126C54.4617 6.98404 55.466 7.14003 56.4292 7.44335C56.6006 7.56118 56.785 7.66009 56.9794 7.73784C57.3629 7.89122 57.775 7.95835 58.1867 7.93489C58.6542 7.91832 59.4052 7.76564 59.9645 7.06651C60.4669 6.43845 60.5051 5.72882 60.5051 5.39066V4.56276C60.5712 3.90217 60.4129 3.23603 60.0522 2.67353L59.9356 2.49167L59.8344 2.39043C59.8068 2.35444 59.7444 2.27314 59.6833 2.19982C59.5229 2.0073 59.211 1.66531 58.7172 1.41841L58.5901 1.35484L56.1004 0.524952H53.0723L50.1514 0.8495L47.5238 2.16331L47.4085 2.24272C47.2184 2.37371 47.0367 2.51522 46.8641 2.66636C46.7447 2.31109 46.5237 1.93013 46.1253 1.61141C45.4973 1.10896 44.7876 1.0708 44.4495 1.0708H40.6206L39.5625 3.18717L38.1167 8.85447L36.7907 3.20461L35.7238 1.0708H30.3163L29.7198 1.73985C29.4402 2.05352 29.2274 2.42092 29.0945 2.81962C29.0039 3.09154 28.9517 3.37411 28.9389 3.65916L27.7202 8.79893L26.3263 3.39042C26.1786 2.81795 25.9112 2.28287 25.5418 1.82125L24.9413 1.0708H21.2509C20.9345 1.0708 20.6212 1.13313 20.3289 1.2542C20.0366 1.37529 19.771 1.55278 19.5472 1.77649C19.3235 2.0002 19.146 2.2658 19.025 2.55815C18.9708 2.68881 18.9285 2.82365 18.8981 2.96108C18.8651 2.92201 18.8317 2.88321 18.798 2.84469L18.6838 2.7143L18.5488 2.6055C16.6723 1.09255 14.2918 0.349698 11.8898 0.525315C10.7067 0.533971 9.52912 0.688215 8.38368 0.984583C7.38923 1.18624 6.42364 1.51085 5.50918 1.95098L5.33299 2.03579L4.34195 2.77907L4.14711 3.08292C3.78642 3.64542 3.62818 4.31155 3.69425 4.97212V5.80004C3.69425 6.17789 3.74931 6.7431 4.06011 7.287C4.43289 7.93935 5.15128 8.48235 6.10364 8.48235H6.76172L7.72955 8.09522L9.66796 7.48947L11.5925 7.2489C12.1828 7.23044 12.765 7.37649 13.2747 7.6683C13.3688 7.82691 13.4465 7.99396 13.5071 8.16683H11.2053ZM19.3041 3.48019C19.5604 3.83472 19.7893 4.20792 19.9891 4.59651L20.978 4.29896L20.0093 4.63611C20.203 5.01756 20.3686 5.41368 20.5045 5.8214C20.8613 6.89167 21.0061 8.02092 20.9311 9.14606M20.3265 9.07514L19.0733 4.91004L20.3265 9.07514ZM19.3041 3.48019H20.8415H19.3041ZM20.8415 3.48019C20.8415 3.42643 20.8521 3.37319 20.8727 3.32352C20.8933 3.27385 20.9234 3.22872 20.9615 3.19071C20.9995 3.15269 21.0446 3.12254 21.0943 3.10196C21.1439 3.08139 21.1972 3.0708 21.2509 3.0708H23.9802C24.173 3.31173 24.3125 3.59079 24.3896 3.88957L27.8011 17.1264L30.9397 3.88957C30.9272 3.74171 30.9449 3.59285 30.9919 3.45207C31.0388 3.3113 31.1139 3.18156 31.2127 3.0708H34.4878L34.8971 3.88957L38.0358 17.2629L41.4473 3.88957L41.8567 3.0708H44.4495C44.8589 3.0708 44.9953 3.20726 44.9953 3.48019V3.88957C44.9953 3.9578 44.9612 4.02604 44.9271 4.09427C44.893 4.1625 44.8589 4.23073 44.8589 4.29896L39.9462 19.8556C39.9416 19.9948 39.9016 20.1305 39.83 20.2499C39.7584 20.3693 39.6575 20.4684 39.5369 20.538L38.8545 20.8109H37.0805C36.9319 20.8342 36.7798 20.8221 36.6367 20.7754C36.4936 20.7288 36.3635 20.649 36.2571 20.5426C36.1507 20.4362 36.0709 20.3062 36.0243 20.1631C35.9777 20.02 35.9655 19.8679 35.9888 19.7192L32.8502 6.89174L29.7116 19.7192C29.7241 19.867 29.7064 20.0159 29.6595 20.1567C29.6125 20.2975 29.5374 20.4272 29.4387 20.538L28.6199 20.8109H26.8459C26.7188 20.8217 26.5909 20.8027 26.4724 20.7553C26.3539 20.7079 26.2482 20.6335 26.1636 20.538C26.0211 20.4465 25.899 20.3265 25.8051 20.1856C25.7111 20.0447 25.6473 19.8859 25.6177 19.7192M46.6329 7.71051C46.6131 8.78897 46.9488 9.84396 47.5881 10.7127C48.4568 11.6719 49.6007 12.3391 50.8632 12.6231L53.7289 13.5784C54.4906 13.7685 55.1936 14.1435 55.7758 14.6701C56.1205 15.0417 56.315 15.5279 56.3217 16.0347C56.3252 16.4213 56.2259 16.8019 56.0341 17.1375C55.8423 17.4732 55.5648 17.7519 55.23 17.9452C54.3529 18.4245 53.3633 18.6601 52.3643 18.6275L49.908 18.3546L47.7246 17.6723L47.1787 17.3993H46.9058C46.761 17.3993 46.6222 17.4568 46.5198 17.5592C46.4175 17.6616 46.36 17.8004 46.36 17.9452V19.0369C46.36 19.0918 46.3821 19.1689 46.4085 19.2503C46.4149 19.27 46.4216 19.2899 46.4282 19.3098C46.4623 19.4121 46.4964 19.5145 46.4964 19.5827C46.6647 19.8283 46.9022 20.0183 47.1787 20.1286L49.4986 20.9473C50.4765 21.2176 51.4862 21.3553 52.5008 21.3567C53.5054 21.3029 54.485 21.023 55.3665 20.538C56.1883 20.4046 56.95 20.0237 57.5499 19.4463C58.1886 18.9875 58.7043 18.3782 59.0509 17.6723C59.3897 16.9444 59.5754 16.1549 59.5968 15.3524C59.6088 14.3587 59.2707 13.3925 58.6416 12.6231C57.8476 11.6428 56.7385 10.9677 55.5029 10.7127L52.7737 9.75744C51.949 9.63272 51.1849 9.25063 50.5903 8.66575C50.3889 8.49737 50.2244 8.28929 50.107 8.0545C49.9896 7.81972 49.9219 7.56326 49.908 7.30113C49.8861 6.94579 49.9639 6.59141 50.1327 6.27796C50.3015 5.96451 50.5545 5.70445 50.8632 5.52712C51.6612 5.11114 52.5581 4.92232 53.456 4.98127C54.4867 4.9841 55.5114 5.1196 56.5051 5.38346C56.5051 5.38345 56.5051 5.38347 56.5051 5.38346C56.514 5.38584 56.5231 5.38826 56.5321 5.39066C56.8289 5.47021 57.1229 5.56122 57.4134 5.66358C57.498 5.75909 57.6037 5.83351 57.7222 5.88089C57.8407 5.92828 57.9686 5.94732 58.0957 5.93651C58.3686 5.93651 58.5051 5.80004 58.5051 5.39066V4.43542C58.5289 4.30112 58.5235 4.16452 58.4906 4.03453C58.4797 3.9915 58.4658 3.9492 58.449 3.90794C58.4271 3.85433 58.4003 3.80249 58.3686 3.75311C58.3273 3.71179 58.286 3.65797 58.2409 3.5992C58.137 3.46389 58.0131 3.30241 57.8228 3.20726L55.7758 2.52495H53.1831L50.7267 2.79788L48.5434 3.88957C47.9473 4.30034 47.4753 4.86673 47.1787 5.52712C46.7893 6.18675 46.5997 6.94523 46.6329 7.71051ZM55.7669 33.8377C55.7102 33.9829 55.6587 34.1115 55.6142 34.2201C55.5247 34.4388 55.4844 34.5253 55.4881 34.5179C55.2789 34.9362 55.1123 35.5306 55.2606 36.198C55.4189 36.9104 55.8876 37.4654 56.4848 37.7641C57.5844 38.3139 58.6802 37.8834 59.2957 37.4217L59.3427 37.3865L59.3876 37.3485C61.5916 35.4836 62.8352 32.7298 63.4527 30.4842C63.7677 29.3388 63.9447 28.2375 63.9889 27.3211C64.0109 26.8668 64.0027 26.4096 63.9438 25.9909C63.8987 25.6699 63.7805 24.9998 63.3166 24.4431C62.8944 23.9364 62.3227 23.684 62.0225 23.5646C61.6417 23.4132 61.2118 23.2953 60.7719 23.2043C59.8861 23.0209 58.7925 22.9123 57.6189 22.9219C55.3166 22.9406 52.3788 23.4185 50.0131 25.0238L49.974 25.0504L49.9361 25.0787C49.9191 25.0916 49.8947 25.1095 49.8651 25.1313C49.7508 25.2157 49.5577 25.3581 49.3987 25.4875L49.3871 25.4969C49.2425 25.6143 48.8063 25.9682 48.5394 26.464C48.3963 26.7298 48.0621 27.4856 48.4483 28.3643C48.7397 29.0273 49.2597 29.3438 49.6222 29.4924C44.1494 31.1961 38.4508 32.1053 32.7011 32.1842C22.6542 32.1737 12.7825 29.5556 4.05159 24.5867C2.99394 23.858 1.49686 23.8836 0.575675 24.989C0.135622 25.5171 -0.0794258 26.2219 0.0267892 26.9442C0.129824 27.6448 0.507563 28.208 0.974059 28.6012C9.48464 36.2892 20.5702 40.505 32.0395 40.4145C39.8795 40.4129 48.952 38.1449 55.7669 33.8377ZM2.2827 27.0881C2.28797 27.0929 2.29325 27.0977 2.29853 27.1025C2.34033 27.1403 2.38221 27.178 2.42414 27.2156C2.6849 27.4496 2.94818 27.6802 3.21388 27.9073C4.13528 28.695 5.08597 29.4417 6.06311 30.1461C13.5854 35.5688 22.6751 38.49 32.0314 38.4145C39.8456 38.4145 48.9027 36.0529 55.4068 31.6856C55.5454 31.5925 55.6829 31.4985 55.8192 31.4036C55.9004 31.347 55.9813 31.2901 56.0616 31.2329C56.0983 31.2068 56.1349 31.1806 56.1714 31.1544C56.2217 31.1182 56.2718 31.0819 56.3217 31.0455C57.4134 30.2268 56.4582 28.9986 55.3665 29.5445C55.3307 29.5592 55.295 29.5738 55.2593 29.5885C55.2515 29.5916 55.2438 29.5948 55.236 29.598C55.1278 29.6423 55.0194 29.6862 54.911 29.7299C54.7633 29.7893 54.6154 29.8482 54.4673 29.9064C47.5365 32.6335 40.1664 34.0838 32.7138 34.1842C23.8317 34.1771 15.0817 32.1999 7.08716 28.4183C6.03735 27.9217 5.00059 27.394 3.97824 26.8356C3.65193 26.6574 3.32708 26.476 3.00376 26.2915C2.99084 26.2841 2.97792 26.2767 2.96501 26.2694C2.95941 26.2649 2.95382 26.2605 2.94823 26.2562C2.2716 25.7369 1.60598 26.5468 2.2827 27.0881ZM60.3083 33.0119C61.965 29.958 62.2875 26.3322 61.7802 25.7235C61.2683 25.1092 57.6836 24.4949 54.3114 25.3215C53.4431 25.5343 52.5888 25.8427 51.8048 26.2712C51.6225 26.3709 51.4439 26.477 51.2699 26.59C51.225 26.6191 51.1804 26.6487 51.1361 26.6787L51.0861 26.7161L51.0194 26.7654C50.4415 27.1922 49.4982 27.8888 51.4091 27.634C51.5167 27.6196 51.632 27.6045 51.7538 27.5889C51.7734 27.5864 51.7932 27.5839 51.8131 27.5814C51.9576 27.563 52.1109 27.5441 52.2713 27.525C52.9635 27.4426 53.7894 27.3576 54.6253 27.3052C56.5607 27.1838 58.5491 27.2378 59.0509 27.9069C59.489 28.491 59.0287 30.4421 58.4641 32.2139C58.2541 32.8729 58.0297 33.507 57.8317 34.0368C57.691 34.4134 57.5637 34.7373 57.4643 34.9798C57.4552 35.002 57.4464 35.0234 57.4378 35.0442C57.3635 35.2239 57.3074 35.3513 57.2769 35.4123C57.004 35.9582 57.5499 36.2311 58.0957 35.8217C58.424 35.5439 58.729 35.2381 59.0115 34.9111C59.5123 34.3316 59.9428 33.6857 60.3083 33.0119Z" fill="#58F6F2"/>
</svg>
