<svg width="21" height="16" viewBox="0 0 21 16" fill="none" xmlns="http://www.w3.org/2000/svg">
<path d="M5.5 9.5H11.55C11.34 9.97 11.18 10.47 11.09 11H5.5C2.46 11 0 8.54 0 5.5C0 2.46 2.46 0 5.5 0H16C18.21 0 20 1.79 20 4C20 4.91 19.69 5.74 19.17 6.41C18.63 6.2 18.05 6.07 17.45 6.03C18.08 5.58 18.5 4.84 18.5 4C18.5 2.62 17.38 1.5 16 1.5H5.5C3.29 1.5 1.5 3.29 1.5 5.5C1.5 7.71 3.29 9.5 5.5 9.5ZM7.5 6.5C6.95 6.5 6.5 6.05 6.5 5.5C6.5 4.95 6.95 4.5 7.5 4.5H15V3H7.5C6.12 3 5 4.12 5 5.5C5 6.88 6.12 8 7.5 8H12.54C13.11 7.36 13.81 6.85 14.61 6.5H7.5ZM18 11V8H16V11H13V13H16V16H18V13H21V11H18Z" fill="#142625"/>
</svg>
