<svg width="64" height="63" viewBox="0 0 64 63" fill="none" xmlns="http://www.w3.org/2000/svg">
<path fill-rule="evenodd" clip-rule="evenodd" d="M27.625 2.375C24.0352 2.375 21.125 5.28516 21.125 8.875V18.625H32C32.5523 18.625 33 19.0727 33 19.625C33 20.1773 32.5523 20.625 32 20.625H9.375C5.78516 20.625 2.875 23.5352 2.875 27.125V35.875C2.875 39.4648 5.78516 42.375 9.375 42.375H19.125V31.5C19.125 30.9477 19.5727 30.5 20.125 30.5H42.875V8.875C42.875 5.28516 39.9648 2.375 36.375 2.375H27.625ZM44.875 18.625V8.875C44.875 4.18059 41.0694 0.375 36.375 0.375H27.625C22.9306 0.375 19.125 4.18059 19.125 8.875V18.625H9.375C4.68059 18.625 0.875 22.4306 0.875 27.125V35.875C0.875 40.5694 4.68059 44.375 9.375 44.375H19.125V54.125C19.125 58.8194 22.9306 62.625 27.625 62.625H36.375C41.0694 62.625 44.875 58.8194 44.875 54.125V44.375H54.625C59.3194 44.375 63.125 40.5694 63.125 35.875V27.125C63.125 22.4306 59.3194 18.625 54.625 18.625H44.875ZM44.875 20.625V31.5C44.875 32.0523 44.4273 32.5 43.875 32.5H21.125V54.125C21.125 57.7148 24.0352 60.625 27.625 60.625H36.375C39.9648 60.625 42.875 57.7148 42.875 54.125V44.375H32C31.4477 44.375 31 43.9273 31 43.375C31 42.8227 31.4477 42.375 32 42.375H43.8722L43.875 42.375L43.8778 42.375H54.625C58.2148 42.375 61.125 39.4648 61.125 35.875V27.125C61.125 23.5352 58.2148 20.625 54.625 20.625H44.875Z" fill="#58F6F2"/>
<path d="M27.625 8.875C28.6605 8.875 29.5 9.7145 29.5 10.75C29.5 11.7855 28.6605 12.625 27.625 12.625C26.5895 12.625 25.75 11.7855 25.75 10.75C25.75 9.7145 26.5895 8.875 27.625 8.875Z" fill="#58F6F2"/>
<path d="M36.375 54.125C35.3395 54.125 34.5 53.2855 34.5 52.25C34.5 51.2145 35.3395 50.375 36.375 50.375C37.4105 50.375 38.25 51.2145 38.25 52.25C38.25 53.2855 37.4105 54.125 36.375 54.125Z" fill="#58F6F2"/>
</svg>
