<svg width="58" height="65" viewBox="0 0 58 65" fill="none" xmlns="http://www.w3.org/2000/svg">
<path d="M29.011 64.5C28.1656 64.5 27.326 64.2752 26.5848 63.8425L18.862 59.2074C17.7085 58.5534 18.2714 58.3221 18.6518 58.1888C20.1897 57.6429 20.5019 57.5196 22.1435 56.5745C22.316 56.4747 22.5418 56.5099 22.7185 56.6156L28.6514 60.1848C28.8657 60.3022 29.1697 60.3022 29.3683 60.1848L52.5013 46.6479C52.7156 46.5246 52.8546 46.2722 52.8546 46.0139V18.9518C52.8546 18.6818 52.7156 18.4411 52.4967 18.3061L29.3729 4.78091C29.1587 4.65177 28.8749 4.65177 28.6607 4.78091L5.5415 18.3061C5.3174 18.4352 5.17496 18.6876 5.17496 18.9459V46.008C5.17496 46.2663 5.31393 46.5128 5.53397 46.6361L11.8688 50.3461C15.3083 52.0896 17.4103 50.035 17.4103 47.9687V21.2588C17.4103 20.8773 17.7056 20.5837 18.082 20.5837H21.012C21.3768 20.5837 21.6779 20.8773 21.6779 21.2588V47.9804C21.6779 52.6297 19.1764 55.3007 14.8277 55.3007C13.4901 55.3007 12.4363 55.3007 9.49467 53.8331L3.42622 50.2874C1.92648 49.4069 1 47.7632 1 46.008V18.9459C1 17.1848 1.92648 15.5412 3.42622 14.6724L26.5825 1.12959C28.0475 0.290137 29.9931 0.290137 31.4465 1.12959L54.5738 14.6782C56.0677 15.5529 57 17.1907 57 18.9518V46.0139C57 47.7691 56.0677 49.4069 54.5738 50.2874L31.4465 63.8302C30.7053 64.2646 29.8657 64.4877 29.0087 64.4877" fill="#58F6F2"/>
<path d="M36.1565 45.8524C26.0347 45.8524 23.9125 41.1421 23.9125 37.1914C23.9125 36.8157 24.2112 36.5163 24.5824 36.5163H27.5703C27.9004 36.5163 28.1783 36.7599 28.2304 37.0904C28.6821 40.177 30.0255 41.7338 36.1461 41.7338C41.0217 41.7338 43.0947 40.6173 43.0947 37.9962C43.0947 36.4875 42.504 35.3663 34.9301 34.6149C28.5952 33.9809 24.6809 32.5662 24.6809 27.4297C24.6809 22.6982 28.6184 19.8805 35.2138 19.8805C42.6199 19.8805 46.291 22.4869 46.7543 28.0871C46.7716 28.2809 46.7022 28.4687 46.5748 28.6096C46.4474 28.7446 46.2679 28.8268 46.0826 28.8268H43.0773C42.7646 28.8268 42.4925 28.6037 42.4288 28.2985C41.705 25.0522 39.9562 24.0132 35.2022 24.0132C29.8807 24.0132 29.2612 25.8917 29.2612 27.3005C29.2612 29.0088 29.9908 29.5078 37.171 30.4705C44.2817 31.4273 47.6576 32.7775 47.6576 37.8436C47.6576 42.9507 43.4537 45.88 36.1229 45.88" fill="#58F6F2"/>
<path d="M29.011 64.5C28.1656 64.5 27.326 64.2752 26.5848 63.8425L18.862 59.2074C17.7085 58.5534 18.2714 58.3221 18.6518 58.1888C20.1897 57.6429 20.5019 57.5196 22.1435 56.5745C22.316 56.4747 22.5418 56.5099 22.7185 56.6156L28.6514 60.1848C28.8657 60.3022 29.1697 60.3022 29.3683 60.1848L52.5013 46.6479C52.7156 46.5246 52.8546 46.2722 52.8546 46.0139V18.9518C52.8546 18.6818 52.7156 18.4411 52.4967 18.3061L29.3729 4.78091C29.1587 4.65177 28.8749 4.65177 28.6607 4.78091L5.5415 18.3061C5.3174 18.4352 5.17496 18.6876 5.17496 18.9459V46.008C5.17496 46.2663 5.31393 46.5128 5.53397 46.6361L11.8688 50.3461C15.3083 52.0896 17.4103 50.035 17.4103 47.9687V21.2588C17.4103 20.8773 17.7056 20.5837 18.082 20.5837H21.012C21.3768 20.5837 21.6779 20.8773 21.6779 21.2588V47.9804C21.6779 52.6297 19.1764 55.3007 14.8277 55.3007C13.4901 55.3007 12.4363 55.3007 9.49467 53.8331L3.42622 50.2874C1.92648 49.4069 1 47.7632 1 46.008V18.9459C1 17.1848 1.92648 15.5412 3.42622 14.6724L26.5825 1.12959C28.0475 0.290137 29.9931 0.290137 31.4465 1.12959L54.5738 14.6782C56.0677 15.5529 57 17.1907 57 18.9518V46.0139C57 47.7691 56.0677 49.4069 54.5738 50.2874L31.4465 63.8302C30.7053 64.2646 29.8657 64.4877 29.0087 64.4877M36.1565 45.8524C26.0347 45.8524 23.9125 41.1421 23.9125 37.1914C23.9125 36.8157 24.2112 36.5163 24.5824 36.5163H27.5703C27.9004 36.5163 28.1783 36.7599 28.2304 37.0904C28.6821 40.177 30.0255 41.7338 36.1461 41.7338C41.0217 41.7338 43.0947 40.6173 43.0947 37.9962C43.0947 36.4875 42.504 35.3663 34.9301 34.6149C28.5952 33.9809 24.6809 32.5662 24.6809 27.4297C24.6809 22.6982 28.6184 19.8805 35.2138 19.8805C42.6199 19.8805 46.291 22.4869 46.7543 28.0871C46.7717 28.2809 46.7022 28.4687 46.5748 28.6096C46.4474 28.7446 46.2679 28.8268 46.0826 28.8268H43.0773C42.7646 28.8268 42.4925 28.6037 42.4288 28.2985C41.705 25.0522 39.9562 24.0132 35.2022 24.0132C29.8807 24.0132 29.2612 25.8917 29.2612 27.3005C29.2612 29.0088 29.9908 29.5078 37.171 30.4705C44.2817 31.4273 47.6576 32.7775 47.6576 37.8436C47.6576 42.9507 43.4537 45.88 36.1229 45.88" stroke="#0C99B7" stroke-width="2"/>
</svg>
