<svg width="96" height="88" viewBox="0 0 96 88" fill="none" xmlns="http://www.w3.org/2000/svg">
<path d="M31.3361 22.7392L36.9 31.8116V34.0392C36.1498 34.5185 35.6567 35.318 35.6567 36.2225V38.869C35.6567 40.3322 36.9448 41.5225 38.5278 41.5225H38.8197C39.0158 44.6351 41.8168 47.1121 45.2331 47.1121C48.6494 47.1121 51.4504 44.6351 51.6465 41.5225H51.9383C53.5214 41.5225 54.8093 40.332 54.8093 38.869V36.2225C54.8093 35.3178 54.3162 34.5183 53.566 34.0392V31.8119L59.13 22.7392C59.1403 22.7226 59.1498 22.706 59.1592 22.689C60.2843 20.7886 60.9265 18.7256 61.068 16.5567C61.1148 15.8407 60.5247 15.2255 59.7501 15.1822C58.9743 15.1403 58.3097 15.6843 58.2629 16.4003C58.1456 18.1956 57.6116 19.9022 56.676 21.4724C56.672 21.4793 56.6679 21.4861 56.664 21.493L51.0961 30.5719C50.8735 30.935 50.7557 31.3475 50.7557 31.765V33.5693H46.6381V23.3619L53.782 16.8459C54.1952 16.4691 54.4237 15.9659 54.4256 15.4294C54.4275 14.893 54.2025 14.3888 53.792 14.0097L51.2325 11.6442C50.824 11.2666 50.2809 11.0586 49.7031 11.0586C49.1255 11.0586 48.5823 11.2666 48.1735 11.6441L47.6925 12.0886L46.4856 11.2964C45.7365 10.8046 44.7299 10.8046 43.9806 11.2964L42.7735 12.0887L42.2925 11.6444C41.8839 11.2668 41.3408 11.0588 40.763 11.0588C40.1853 11.0588 39.6422 11.2668 39.2336 11.6442L36.6741 14.0097C36.2636 14.3889 36.0386 14.8933 36.0404 15.4298C36.0423 15.9662 36.2709 16.4692 36.6842 16.846L43.8279 23.3619V33.5694H39.7104V31.7651C39.7104 31.3478 39.5929 30.9354 39.3701 30.5723L33.8006 21.4906C33.797 21.4845 33.7936 21.4785 33.7901 21.4724C32.736 19.7034 32.1788 17.6943 32.1788 15.6623C32.1788 12.4245 33.5478 9.38456 36.0333 7.10254C38.4976 4.84008 41.7612 3.59734 45.2327 3.59734C45.2623 3.59734 45.2927 3.59734 45.3225 3.59769C50.6616 3.63059 55.5314 6.76852 57.4404 11.4058C57.7164 12.0763 58.5278 12.4127 59.2534 12.1578C59.9787 11.9028 60.3429 11.1527 60.0671 10.4822C57.7488 4.85082 51.8309 1.04035 45.3412 1.00035C45.3049 1.00017 45.2687 1 45.2324 1C41.014 1 37.0475 2.51061 34.0529 5.25981C31.0322 8.03308 29.3686 11.7274 29.3686 15.6623C29.3686 18.1184 30.0392 20.5479 31.3083 22.6913C31.317 22.7074 31.3263 22.7235 31.3361 22.7392ZM39.1223 15.4203L40.7631 13.9036L41.1733 14.2825C41.9219 14.9746 43.092 15.0653 43.9551 14.4987L45.2333 13.6598L46.5114 14.4987C47.3746 15.0655 48.5448 14.9747 49.2935 14.2825L49.7034 13.9036L51.3445 15.4203L45.2335 20.9942L39.1223 15.4203ZM45.2331 44.5148C43.3672 44.5148 41.827 43.2016 41.6377 41.5225H48.8287C48.6395 43.2016 47.0992 44.5148 45.2331 44.5148ZM51.9991 38.869C51.9991 38.9 51.9718 38.9251 51.9384 38.9251H38.528C38.4944 38.9251 38.4673 38.8999 38.4673 38.869V36.2225C38.4673 36.1915 38.4946 36.1664 38.528 36.1664H51.9384C51.972 36.1664 51.9991 36.1917 51.9991 36.2225V38.869Z" fill="url(#paint0_linear_385_351)"/>
<path d="M63.5132 7.18479C63.7502 7.18479 63.9904 7.1292 64.2109 7.0125L65.8634 6.13685C66.5366 5.78014 66.7694 4.98657 66.3835 4.36442C65.9975 3.7421 65.1391 3.52687 64.4655 3.88374L62.813 4.75939C62.1399 5.11609 61.907 5.90967 62.2929 6.53182C62.5524 6.95033 63.0262 7.18479 63.5132 7.18479Z" fill="url(#paint1_linear_385_351)"/>
<path d="M63.5036 16.9175C63.1952 17.5755 63.5222 18.3404 64.2341 18.6255L66.1993 19.4125C66.3814 19.4854 66.5709 19.5199 66.7575 19.5199C67.3004 19.5199 67.8177 19.2271 68.0476 18.7372C68.356 18.0792 68.0291 17.3144 67.3171 17.0292L65.3519 16.2422C64.6396 15.957 63.8124 16.2595 63.5036 16.9175Z" fill="url(#paint2_linear_385_351)"/>
<path d="M24.8001 6.13702L26.4528 7.01267C26.6731 7.12938 26.9133 7.18496 27.1503 7.18496C27.6374 7.18496 28.1111 6.95051 28.3708 6.53199C28.7567 5.90984 28.5238 5.11609 27.8505 4.75939L26.1978 3.88374C25.5246 3.52721 24.666 3.74227 24.2798 4.36459C23.8939 4.98657 24.1267 5.78032 24.8001 6.13702Z" fill="url(#paint3_linear_385_351)"/>
<path d="M23.906 19.5199C24.0925 19.5199 24.2821 19.4854 24.464 19.4125L26.4292 18.6255C27.1413 18.3404 27.4685 17.5757 27.1599 16.9175C26.8513 16.2594 26.0239 15.957 25.3118 16.2422L23.3466 17.0292C22.6344 17.3144 22.3073 18.0791 22.6159 18.7372C22.8456 19.2271 23.3629 19.5199 23.906 19.5199Z" fill="url(#paint4_linear_385_351)"/>
<path d="M60.3262 26.3985C60.3262 27.1157 60.9552 27.6972 61.7314 27.6972H85.8387V57.6702C85.8387 58.3874 86.4676 58.9688 87.2439 58.9688C88.0201 58.9688 88.649 58.3874 88.649 57.6702V27.5599C88.649 26.2036 87.455 25.0999 85.9874 25.0999H61.7314C60.9554 25.0999 60.3262 25.6813 60.3262 26.3985Z" fill="url(#paint5_linear_385_351)"/>
<path d="M87.2439 77.7086C86.4676 77.7086 85.8387 78.2901 85.8387 79.0073V84.4027H11.5894C6.93259 84.4027 3.0824 81.0403 2.82404 76.748C2.69101 74.538 3.53731 72.4225 5.20685 70.7914C6.90824 69.1289 9.30454 68.1755 11.781 68.1755H13.2276C14.4443 68.1755 15.4343 67.2606 15.4343 66.1361V39.7059C15.4343 38.9887 14.8052 38.4072 14.0291 38.4072C13.2531 38.4072 12.6239 38.9887 12.6239 39.7059V65.5782H11.781C8.53544 65.5782 5.39514 66.8277 3.16503 69.0065C3.04306 69.1256 2.92558 69.2477 2.81017 69.3708V30.5834C2.81017 26.0952 6.76116 22.4436 11.6175 22.4436H12.6238V34.1715C12.6238 34.8887 13.2529 35.4702 14.0289 35.4702C14.805 35.4702 15.4341 34.8887 15.4341 34.1715V27.6972H28.7344C29.5105 27.6972 30.1396 27.1157 30.1396 26.3985C30.1396 25.6813 29.5105 25.0999 28.7344 25.0999H15.4343V21.8856C15.4343 20.7611 14.4443 19.8461 13.2276 19.8461H11.6177C5.21172 19.8463 0 24.663 0 30.5834C0 30.5834 0.00637015 76.6965 0.0181737 76.8922C0.359164 82.5601 5.44198 87 11.5894 87H85.9874C87.455 87 88.649 85.8965 88.649 84.54V79.0073C88.649 78.2901 88.0201 77.7086 87.2439 77.7086Z" fill="url(#paint6_linear_385_351)"/>
<path d="M90.8827 61.5663H31.9339C31.698 61.5663 31.4657 61.6212 31.2589 61.726L21.4983 66.6668C20.8371 67.0015 20.4264 67.6422 20.4264 68.339C20.4264 69.0356 20.8371 69.6764 21.4985 70.0111L31.2591 74.9518C31.4659 75.0566 31.698 75.1115 31.9341 75.1115H40.2131C40.9891 75.1115 41.6182 74.53 41.6182 73.8128C41.6182 73.0956 40.9891 72.5141 40.2131 72.5141H33.3393V64.1637H76.2076V72.5141H46.2014C45.4253 72.5141 44.7962 73.0956 44.7962 73.8128C44.7962 74.53 45.4253 75.1115 46.2014 75.1115H90.8827C93.7045 75.1115 96 72.99 96 70.382V66.2956C96 63.6878 93.7045 61.5663 90.8827 61.5663ZM30.5287 65.057V71.6206L24.0452 68.3388L30.5287 65.057ZM79.0177 64.1637H82.2412V72.5141H79.0177V64.1637ZM93.1896 70.382C93.1896 71.5576 92.1549 72.5141 90.8827 72.5141H85.0516V64.1637H90.8827C92.1547 64.1637 93.1896 65.12 93.1896 66.2957V70.382Z" fill="url(#paint7_linear_385_351)"/>
<path d="M71.8298 52.1245H28.4197C24.0123 52.1245 20.4264 55.4383 20.4264 59.5118V60.8472C20.4264 61.5644 21.0556 62.1459 21.8316 62.1459C22.6077 62.1459 23.2368 61.5644 23.2368 60.8472V59.5118C23.2368 56.8707 25.5617 54.7218 28.4197 54.7218H71.8298C76.002 54.7218 79.3964 51.5848 79.3964 47.7287C79.3964 43.8727 76.002 40.7357 71.8298 40.7357H58.2132C57.437 40.7357 56.808 41.3171 56.808 42.0343C56.808 42.7515 57.437 43.333 58.2132 43.333H71.8298C74.4524 43.333 76.586 45.3049 76.586 47.7287C76.586 50.1526 74.4524 52.1245 71.8298 52.1245Z" fill="url(#paint8_linear_385_351)"/>
<path d="M31.3361 22.7392L36.9 31.8116V34.0392C36.1498 34.5185 35.6567 35.318 35.6567 36.2225V38.869C35.6567 40.3322 36.9448 41.5225 38.5278 41.5225H38.8197C39.0158 44.6351 41.8168 47.1121 45.2331 47.1121C48.6494 47.1121 51.4504 44.6351 51.6465 41.5225H51.9383C53.5214 41.5225 54.8093 40.332 54.8093 38.869V36.2225C54.8093 35.3178 54.3162 34.5183 53.566 34.0392V31.8119L59.13 22.7392C59.1403 22.7226 59.1498 22.706 59.1592 22.689C60.2843 20.7886 60.9265 18.7256 61.068 16.5567C61.1148 15.8407 60.5247 15.2255 59.7501 15.1822C58.9743 15.1403 58.3097 15.6843 58.2629 16.4003C58.1456 18.1956 57.6116 19.9022 56.676 21.4724C56.672 21.4793 56.6679 21.4861 56.664 21.493L51.0961 30.5719C50.8735 30.935 50.7557 31.3475 50.7557 31.765V33.5693H46.6381V23.3619L53.782 16.8459C54.1952 16.4691 54.4237 15.9659 54.4256 15.4294C54.4275 14.893 54.2025 14.3888 53.792 14.0097L51.2325 11.6442C50.824 11.2666 50.2809 11.0586 49.7031 11.0586C49.1255 11.0586 48.5823 11.2666 48.1735 11.6441L47.6925 12.0886L46.4856 11.2964C45.7365 10.8046 44.7299 10.8046 43.9806 11.2964L42.7735 12.0887L42.2925 11.6444C41.8839 11.2668 41.3408 11.0588 40.763 11.0588C40.1853 11.0588 39.6422 11.2668 39.2336 11.6442L36.6741 14.0097C36.2636 14.3889 36.0386 14.8933 36.0404 15.4298C36.0423 15.9662 36.2709 16.4692 36.6842 16.846L43.8279 23.3619V33.5694H39.7104V31.7651C39.7104 31.3478 39.5929 30.9354 39.3701 30.5723L33.8006 21.4906C33.797 21.4845 33.7936 21.4785 33.7901 21.4724C32.736 19.7034 32.1788 17.6943 32.1788 15.6623C32.1788 12.4245 33.5478 9.38456 36.0333 7.10254C38.4976 4.84008 41.7612 3.59734 45.2327 3.59734C45.2623 3.59734 45.2927 3.59734 45.3225 3.59769C50.6616 3.63059 55.5314 6.76852 57.4404 11.4058C57.7164 12.0763 58.5278 12.4127 59.2534 12.1578C59.9787 11.9028 60.3429 11.1527 60.0671 10.4822C57.7488 4.85082 51.8309 1.04035 45.3412 1.00035C45.3049 1.00017 45.2687 1 45.2324 1C41.014 1 37.0475 2.51061 34.0529 5.25981C31.0322 8.03308 29.3686 11.7274 29.3686 15.6623C29.3686 18.1184 30.0392 20.5479 31.3083 22.6913C31.317 22.7074 31.3263 22.7235 31.3361 22.7392ZM39.1223 15.4203L40.7631 13.9036L41.1733 14.2825C41.9219 14.9746 43.092 15.0653 43.9551 14.4987L45.2333 13.6598L46.5114 14.4987C47.3746 15.0655 48.5448 14.9747 49.2935 14.2825L49.7034 13.9036L51.3445 15.4203L45.2335 20.9942L39.1223 15.4203ZM45.2331 44.5148C43.3672 44.5148 41.827 43.2016 41.6377 41.5225H48.8287C48.6395 43.2016 47.0992 44.5148 45.2331 44.5148ZM51.9991 38.869C51.9991 38.9 51.9718 38.9251 51.9384 38.9251H38.528C38.4944 38.9251 38.4673 38.8999 38.4673 38.869V36.2225C38.4673 36.1915 38.4946 36.1664 38.528 36.1664H51.9384C51.972 36.1664 51.9991 36.1917 51.9991 36.2225V38.869Z" stroke="#43A6C9"/>
<path d="M63.5132 7.18479C63.7502 7.18479 63.9904 7.1292 64.2109 7.0125L65.8634 6.13685C66.5366 5.78014 66.7694 4.98657 66.3835 4.36442C65.9975 3.7421 65.1391 3.52687 64.4655 3.88374L62.813 4.75939C62.1399 5.11609 61.907 5.90967 62.2929 6.53182C62.5524 6.95033 63.0262 7.18479 63.5132 7.18479Z" stroke="#43A6C9"/>
<path d="M63.5036 16.9175C63.1952 17.5755 63.5222 18.3404 64.2341 18.6255L66.1993 19.4125C66.3814 19.4854 66.5709 19.5199 66.7575 19.5199C67.3004 19.5199 67.8177 19.2271 68.0476 18.7372C68.356 18.0792 68.0291 17.3144 67.3171 17.0292L65.3519 16.2422C64.6396 15.957 63.8124 16.2595 63.5036 16.9175Z" stroke="#43A6C9"/>
<path d="M24.8001 6.13702L26.4528 7.01267C26.6731 7.12938 26.9133 7.18496 27.1503 7.18496C27.6374 7.18496 28.1111 6.95051 28.3708 6.53199C28.7567 5.90984 28.5238 5.11609 27.8505 4.75939L26.1978 3.88374C25.5246 3.52721 24.666 3.74227 24.2798 4.36459C23.8939 4.98657 24.1267 5.78032 24.8001 6.13702Z" stroke="#43A6C9"/>
<path d="M23.906 19.5199C24.0925 19.5199 24.2821 19.4854 24.464 19.4125L26.4292 18.6255C27.1413 18.3404 27.4685 17.5757 27.1599 16.9175C26.8513 16.2594 26.0239 15.957 25.3118 16.2422L23.3466 17.0292C22.6344 17.3144 22.3073 18.0791 22.6159 18.7372C22.8456 19.2271 23.3629 19.5199 23.906 19.5199Z" stroke="#43A6C9"/>
<path d="M60.3262 26.3985C60.3262 27.1157 60.9552 27.6972 61.7314 27.6972H85.8387V57.6702C85.8387 58.3874 86.4676 58.9688 87.2439 58.9688C88.0201 58.9688 88.649 58.3874 88.649 57.6702V27.5599C88.649 26.2036 87.455 25.0999 85.9874 25.0999H61.7314C60.9554 25.0999 60.3262 25.6813 60.3262 26.3985Z" stroke="#43A6C9"/>
<path d="M87.2439 77.7086C86.4676 77.7086 85.8387 78.2901 85.8387 79.0073V84.4027H11.5894C6.93259 84.4027 3.0824 81.0403 2.82404 76.748C2.69101 74.538 3.53731 72.4225 5.20685 70.7914C6.90824 69.1289 9.30454 68.1755 11.781 68.1755H13.2276C14.4443 68.1755 15.4343 67.2606 15.4343 66.1361V39.7059C15.4343 38.9887 14.8052 38.4072 14.0291 38.4072C13.2531 38.4072 12.6239 38.9887 12.6239 39.7059V65.5782H11.781C8.53544 65.5782 5.39514 66.8277 3.16503 69.0065C3.04306 69.1256 2.92558 69.2477 2.81017 69.3708V30.5834C2.81017 26.0952 6.76116 22.4436 11.6175 22.4436H12.6238V34.1715C12.6238 34.8887 13.2529 35.4702 14.0289 35.4702C14.805 35.4702 15.4341 34.8887 15.4341 34.1715V27.6972H28.7344C29.5105 27.6972 30.1396 27.1157 30.1396 26.3985C30.1396 25.6813 29.5105 25.0999 28.7344 25.0999H15.4343V21.8856C15.4343 20.7611 14.4443 19.8461 13.2276 19.8461H11.6177C5.21172 19.8463 0 24.663 0 30.5834C0 30.5834 0.00637015 76.6965 0.0181737 76.8922C0.359164 82.5601 5.44198 87 11.5894 87H85.9874C87.455 87 88.649 85.8965 88.649 84.54V79.0073C88.649 78.2901 88.0201 77.7086 87.2439 77.7086Z" stroke="#43A6C9"/>
<path d="M90.8827 61.5663H31.9339C31.698 61.5663 31.4657 61.6212 31.2589 61.726L21.4983 66.6668C20.8371 67.0015 20.4264 67.6422 20.4264 68.339C20.4264 69.0356 20.8371 69.6764 21.4985 70.0111L31.2591 74.9518C31.4659 75.0566 31.698 75.1115 31.9341 75.1115H40.2131C40.9891 75.1115 41.6182 74.53 41.6182 73.8128C41.6182 73.0956 40.9891 72.5141 40.2131 72.5141H33.3393V64.1637H76.2076V72.5141H46.2014C45.4253 72.5141 44.7962 73.0956 44.7962 73.8128C44.7962 74.53 45.4253 75.1115 46.2014 75.1115H90.8827C93.7045 75.1115 96 72.99 96 70.382V66.2956C96 63.6878 93.7045 61.5663 90.8827 61.5663ZM30.5287 65.057V71.6206L24.0452 68.3388L30.5287 65.057ZM79.0177 64.1637H82.2412V72.5141H79.0177V64.1637ZM93.1896 70.382C93.1896 71.5576 92.1549 72.5141 90.8827 72.5141H85.0516V64.1637H90.8827C92.1547 64.1637 93.1896 65.12 93.1896 66.2957V70.382Z" stroke="#43A6C9"/>
<path d="M71.8298 52.1245H28.4197C24.0123 52.1245 20.4264 55.4383 20.4264 59.5118V60.8472C20.4264 61.5644 21.0556 62.1459 21.8316 62.1459C22.6077 62.1459 23.2368 61.5644 23.2368 60.8472V59.5118C23.2368 56.8707 25.5617 54.7218 28.4197 54.7218H71.8298C76.002 54.7218 79.3964 51.5848 79.3964 47.7287C79.3964 43.8727 76.002 40.7357 71.8298 40.7357H58.2132C57.437 40.7357 56.808 41.3171 56.808 42.0343C56.808 42.7515 57.437 43.333 58.2132 43.333H71.8298C74.4524 43.333 76.586 45.3049 76.586 47.7287C76.586 50.1526 74.4524 52.1245 71.8298 52.1245Z" stroke="#43A6C9"/>
<defs>
<linearGradient id="paint0_linear_385_351" x1="-9.17653e-07" y1="0.562493" x2="0.500408" y2="87.9955" gradientUnits="userSpaceOnUse">
<stop stop-color="#E5FCFA"/>
<stop offset="1" stop-color="#58F6F2"/>
</linearGradient>
<linearGradient id="paint1_linear_385_351" x1="-9.17653e-07" y1="0.562493" x2="0.500408" y2="87.9955" gradientUnits="userSpaceOnUse">
<stop stop-color="#E5FCFA"/>
<stop offset="1" stop-color="#58F6F2"/>
</linearGradient>
<linearGradient id="paint2_linear_385_351" x1="-9.17653e-07" y1="0.562493" x2="0.500408" y2="87.9955" gradientUnits="userSpaceOnUse">
<stop stop-color="#E5FCFA"/>
<stop offset="1" stop-color="#58F6F2"/>
</linearGradient>
<linearGradient id="paint3_linear_385_351" x1="-9.17653e-07" y1="0.562493" x2="0.500408" y2="87.9955" gradientUnits="userSpaceOnUse">
<stop stop-color="#E5FCFA"/>
<stop offset="1" stop-color="#58F6F2"/>
</linearGradient>
<linearGradient id="paint4_linear_385_351" x1="-9.17653e-07" y1="0.562493" x2="0.500408" y2="87.9955" gradientUnits="userSpaceOnUse">
<stop stop-color="#E5FCFA"/>
<stop offset="1" stop-color="#58F6F2"/>
</linearGradient>
<linearGradient id="paint5_linear_385_351" x1="-9.17653e-07" y1="0.562493" x2="0.500408" y2="87.9955" gradientUnits="userSpaceOnUse">
<stop stop-color="#E5FCFA"/>
<stop offset="1" stop-color="#58F6F2"/>
</linearGradient>
<linearGradient id="paint6_linear_385_351" x1="-9.17653e-07" y1="0.562493" x2="0.500408" y2="87.9955" gradientUnits="userSpaceOnUse">
<stop stop-color="#E5FCFA"/>
<stop offset="1" stop-color="#58F6F2"/>
</linearGradient>
<linearGradient id="paint7_linear_385_351" x1="-9.17653e-07" y1="0.562493" x2="0.500408" y2="87.9955" gradientUnits="userSpaceOnUse">
<stop stop-color="#E5FCFA"/>
<stop offset="1" stop-color="#58F6F2"/>
</linearGradient>
<linearGradient id="paint8_linear_385_351" x1="-9.17653e-07" y1="0.562493" x2="0.500408" y2="87.9955" gradientUnits="userSpaceOnUse">
<stop stop-color="#E5FCFA"/>
<stop offset="1" stop-color="#58F6F2"/>
</linearGradient>
</defs>
</svg>
